<mxfile host="Electron" modified="2025-02-04T07:33:41.889Z" agent="Mozilla/5.0 (Windows NT 10.0; Win64; x64) AppleWebKit/537.36 (KHTML, like Gecko) draw.io/21.6.8 Chrome/114.0.5735.289 Electron/25.5.0 Safari/537.36" etag="Yxb2gwnz9NqYENxMKhcb" version="21.6.8" type="device">
  <diagram name="Pagina-1" id="cI-O4c_GQ_UjW1LQLMIX">
    <mxGraphModel dx="4844" dy="3622" grid="1" gridSize="10" guides="1" tooltips="1" connect="1" arrows="1" fold="1" page="1" pageScale="1" pageWidth="827" pageHeight="1169" math="0" shadow="0">
      <root>
        <mxCell id="0" />
        <mxCell id="1" parent="0" />
        <mxCell id="InZTx-NVTbnGkAL5Rg_h-15" style="edgeStyle=orthogonalEdgeStyle;rounded=0;orthogonalLoop=1;jettySize=auto;html=1;entryX=0;entryY=0.5;entryDx=0;entryDy=0;" parent="1" source="InZTx-NVTbnGkAL5Rg_h-1" target="InZTx-NVTbnGkAL5Rg_h-19" edge="1">
          <mxGeometry relative="1" as="geometry" />
        </mxCell>
        <mxCell id="InZTx-NVTbnGkAL5Rg_h-1" value="Researcher" style="shape=umlActor;verticalLabelPosition=bottom;verticalAlign=top;html=1;outlineConnect=0;" parent="1" vertex="1">
          <mxGeometry x="-620" y="247" width="30" height="60" as="geometry" />
        </mxCell>
        <mxCell id="InZTx-NVTbnGkAL5Rg_h-121" style="edgeStyle=orthogonalEdgeStyle;rounded=0;orthogonalLoop=1;jettySize=auto;html=1;exitX=1;exitY=0.5;exitDx=0;exitDy=0;entryX=0;entryY=0.5;entryDx=0;entryDy=0;" parent="1" source="InZTx-NVTbnGkAL5Rg_h-2" target="InZTx-NVTbnGkAL5Rg_h-120" edge="1">
          <mxGeometry relative="1" as="geometry" />
        </mxCell>
        <mxCell id="InZTx-NVTbnGkAL5Rg_h-2" value="Export" style="rounded=0;whiteSpace=wrap;html=1;fillColor=#d5e8d4;strokeColor=#82b366;" parent="1" vertex="1">
          <mxGeometry x="500" y="247" width="120" height="60" as="geometry" />
        </mxCell>
        <mxCell id="InZTx-NVTbnGkAL5Rg_h-6" style="edgeStyle=orthogonalEdgeStyle;rounded=0;orthogonalLoop=1;jettySize=auto;html=1;exitX=1;exitY=0.5;exitDx=0;exitDy=0;" parent="1" source="InZTx-NVTbnGkAL5Rg_h-3" target="InZTx-NVTbnGkAL5Rg_h-5" edge="1">
          <mxGeometry relative="1" as="geometry" />
        </mxCell>
        <mxCell id="InZTx-NVTbnGkAL5Rg_h-3" value="Profile" style="rounded=0;whiteSpace=wrap;html=1;fillColor=#d5e8d4;strokeColor=#82b366;" parent="1" vertex="1">
          <mxGeometry x="500" y="140" width="120" height="60" as="geometry" />
        </mxCell>
        <mxCell id="InZTx-NVTbnGkAL5Rg_h-22" style="edgeStyle=orthogonalEdgeStyle;rounded=0;orthogonalLoop=1;jettySize=auto;html=1;" parent="1" source="InZTx-NVTbnGkAL5Rg_h-4" target="InZTx-NVTbnGkAL5Rg_h-2" edge="1">
          <mxGeometry relative="1" as="geometry">
            <Array as="points">
              <mxPoint x="450" y="277" />
              <mxPoint x="450" y="277" />
            </Array>
          </mxGeometry>
        </mxCell>
        <mxCell id="InZTx-NVTbnGkAL5Rg_h-23" value="Navigates" style="edgeLabel;html=1;align=center;verticalAlign=middle;resizable=0;points=[];" parent="InZTx-NVTbnGkAL5Rg_h-22" vertex="1" connectable="0">
          <mxGeometry x="-0.0958" y="1" relative="1" as="geometry">
            <mxPoint as="offset" />
          </mxGeometry>
        </mxCell>
        <mxCell id="InZTx-NVTbnGkAL5Rg_h-24" style="edgeStyle=orthogonalEdgeStyle;rounded=0;orthogonalLoop=1;jettySize=auto;html=1;entryX=0;entryY=0.5;entryDx=0;entryDy=0;" parent="1" source="InZTx-NVTbnGkAL5Rg_h-4" target="InZTx-NVTbnGkAL5Rg_h-3" edge="1">
          <mxGeometry relative="1" as="geometry">
            <Array as="points">
              <mxPoint x="338" y="170" />
            </Array>
          </mxGeometry>
        </mxCell>
        <mxCell id="InZTx-NVTbnGkAL5Rg_h-25" value="Navigates" style="edgeLabel;html=1;align=center;verticalAlign=middle;resizable=0;points=[];" parent="InZTx-NVTbnGkAL5Rg_h-24" vertex="1" connectable="0">
          <mxGeometry x="0.1974" y="2" relative="1" as="geometry">
            <mxPoint as="offset" />
          </mxGeometry>
        </mxCell>
        <mxCell id="InZTx-NVTbnGkAL5Rg_h-26" style="edgeStyle=orthogonalEdgeStyle;rounded=0;orthogonalLoop=1;jettySize=auto;html=1;entryX=0;entryY=0.5;entryDx=0;entryDy=0;" parent="1" source="InZTx-NVTbnGkAL5Rg_h-4" target="InZTx-NVTbnGkAL5Rg_h-28" edge="1">
          <mxGeometry relative="1" as="geometry">
            <mxPoint x="350" y="480" as="targetPoint" />
            <Array as="points">
              <mxPoint x="340" y="380" />
            </Array>
          </mxGeometry>
        </mxCell>
        <mxCell id="InZTx-NVTbnGkAL5Rg_h-31" style="edgeStyle=orthogonalEdgeStyle;rounded=0;orthogonalLoop=1;jettySize=auto;html=1;exitX=0.25;exitY=1;exitDx=0;exitDy=0;entryX=0;entryY=0.5;entryDx=0;entryDy=0;" parent="1" source="InZTx-NVTbnGkAL5Rg_h-4" target="InZTx-NVTbnGkAL5Rg_h-30" edge="1">
          <mxGeometry relative="1" as="geometry" />
        </mxCell>
        <mxCell id="InZTx-NVTbnGkAL5Rg_h-4" value="(Experiment)Dashboard" style="rounded=0;whiteSpace=wrap;html=1;fillColor=#d5e8d4;strokeColor=#82b366;" parent="1" vertex="1">
          <mxGeometry x="263" y="247" width="150" height="60" as="geometry" />
        </mxCell>
        <mxCell id="InZTx-NVTbnGkAL5Rg_h-27" style="edgeStyle=orthogonalEdgeStyle;rounded=0;orthogonalLoop=1;jettySize=auto;html=1;entryX=0.5;entryY=0;entryDx=0;entryDy=0;exitX=0;exitY=0.5;exitDx=0;exitDy=0;" parent="1" source="InZTx-NVTbnGkAL5Rg_h-228" target="InZTx-NVTbnGkAL5Rg_h-19" edge="1">
          <mxGeometry relative="1" as="geometry">
            <Array as="points">
              <mxPoint x="-440" y="100" />
            </Array>
          </mxGeometry>
        </mxCell>
        <mxCell id="InZTx-NVTbnGkAL5Rg_h-40" value="Navigates" style="edgeLabel;html=1;align=center;verticalAlign=middle;resizable=0;points=[];" parent="InZTx-NVTbnGkAL5Rg_h-27" vertex="1" connectable="0">
          <mxGeometry x="-0.7781" y="-3" relative="1" as="geometry">
            <mxPoint x="-382" as="offset" />
          </mxGeometry>
        </mxCell>
        <mxCell id="InZTx-NVTbnGkAL5Rg_h-229" style="edgeStyle=orthogonalEdgeStyle;rounded=0;orthogonalLoop=1;jettySize=auto;html=1;exitX=0.5;exitY=0;exitDx=0;exitDy=0;entryX=1;entryY=0.5;entryDx=0;entryDy=0;" parent="1" source="InZTx-NVTbnGkAL5Rg_h-5" target="InZTx-NVTbnGkAL5Rg_h-228" edge="1">
          <mxGeometry relative="1" as="geometry" />
        </mxCell>
        <mxCell id="InZTx-NVTbnGkAL5Rg_h-5" value="Clicks Logout" style="rounded=0;whiteSpace=wrap;html=1;fillColor=#dae8fc;strokeColor=#6c8ebf;" parent="1" vertex="1">
          <mxGeometry x="680" y="140" width="120" height="60" as="geometry" />
        </mxCell>
        <mxCell id="InZTx-NVTbnGkAL5Rg_h-232" style="edgeStyle=orthogonalEdgeStyle;rounded=0;orthogonalLoop=1;jettySize=auto;html=1;" parent="1" source="InZTx-NVTbnGkAL5Rg_h-9" target="InZTx-NVTbnGkAL5Rg_h-230" edge="1">
          <mxGeometry relative="1" as="geometry" />
        </mxCell>
        <mxCell id="InZTx-NVTbnGkAL5Rg_h-9" value="Logs in" style="rounded=0;whiteSpace=wrap;html=1;fillColor=#dae8fc;strokeColor=#6c8ebf;" parent="1" vertex="1">
          <mxGeometry x="-330" y="247" width="120" height="60" as="geometry" />
        </mxCell>
        <mxCell id="InZTx-NVTbnGkAL5Rg_h-11" style="edgeStyle=orthogonalEdgeStyle;rounded=0;orthogonalLoop=1;jettySize=auto;html=1;exitX=0.5;exitY=1;exitDx=0;exitDy=0;entryX=0.5;entryY=0;entryDx=0;entryDy=0;" parent="1" source="InZTx-NVTbnGkAL5Rg_h-10" target="InZTx-NVTbnGkAL5Rg_h-13" edge="1">
          <mxGeometry relative="1" as="geometry">
            <mxPoint x="119.83333333333348" y="370" as="targetPoint" />
          </mxGeometry>
        </mxCell>
        <mxCell id="InZTx-NVTbnGkAL5Rg_h-12" value="No" style="edgeLabel;html=1;align=center;verticalAlign=middle;resizable=0;points=[];" parent="InZTx-NVTbnGkAL5Rg_h-11" vertex="1" connectable="0">
          <mxGeometry x="-0.1063" y="-2" relative="1" as="geometry">
            <mxPoint x="2" as="offset" />
          </mxGeometry>
        </mxCell>
        <mxCell id="InZTx-NVTbnGkAL5Rg_h-17" style="edgeStyle=orthogonalEdgeStyle;rounded=0;orthogonalLoop=1;jettySize=auto;html=1;exitX=1;exitY=0.5;exitDx=0;exitDy=0;" parent="1" source="InZTx-NVTbnGkAL5Rg_h-10" target="InZTx-NVTbnGkAL5Rg_h-4" edge="1">
          <mxGeometry relative="1" as="geometry" />
        </mxCell>
        <mxCell id="InZTx-NVTbnGkAL5Rg_h-21" value="Yes" style="edgeLabel;html=1;align=center;verticalAlign=middle;resizable=0;points=[];" parent="InZTx-NVTbnGkAL5Rg_h-17" vertex="1" connectable="0">
          <mxGeometry x="-0.0809" y="1" relative="1" as="geometry">
            <mxPoint as="offset" />
          </mxGeometry>
        </mxCell>
        <mxCell id="InZTx-NVTbnGkAL5Rg_h-10" value="Has Researcher role?" style="rhombus;whiteSpace=wrap;html=1;" parent="1" vertex="1">
          <mxGeometry x="80" y="237" width="80" height="80" as="geometry" />
        </mxCell>
        <mxCell id="InZTx-NVTbnGkAL5Rg_h-13" value="Unauthorized" style="rounded=0;whiteSpace=wrap;html=1;fillColor=#d5e8d4;strokeColor=#82b366;" parent="1" vertex="1">
          <mxGeometry x="60" y="380" width="120" height="60" as="geometry" />
        </mxCell>
        <mxCell id="InZTx-NVTbnGkAL5Rg_h-20" style="edgeStyle=orthogonalEdgeStyle;rounded=0;orthogonalLoop=1;jettySize=auto;html=1;exitX=1;exitY=0.5;exitDx=0;exitDy=0;" parent="1" source="InZTx-NVTbnGkAL5Rg_h-19" target="InZTx-NVTbnGkAL5Rg_h-9" edge="1">
          <mxGeometry relative="1" as="geometry" />
        </mxCell>
        <mxCell id="InZTx-NVTbnGkAL5Rg_h-19" value="Login page" style="rounded=0;whiteSpace=wrap;html=1;fillColor=#d5e8d4;strokeColor=#82b366;" parent="1" vertex="1">
          <mxGeometry x="-500" y="247" width="120" height="60" as="geometry" />
        </mxCell>
        <mxCell id="InZTx-NVTbnGkAL5Rg_h-37" style="edgeStyle=orthogonalEdgeStyle;rounded=0;orthogonalLoop=1;jettySize=auto;html=1;exitX=1;exitY=0.5;exitDx=0;exitDy=0;" parent="1" source="InZTx-NVTbnGkAL5Rg_h-28" target="InZTx-NVTbnGkAL5Rg_h-36" edge="1">
          <mxGeometry relative="1" as="geometry" />
        </mxCell>
        <mxCell id="InZTx-NVTbnGkAL5Rg_h-38" value="Navigates" style="edgeLabel;html=1;align=center;verticalAlign=middle;resizable=0;points=[];" parent="InZTx-NVTbnGkAL5Rg_h-37" vertex="1" connectable="0">
          <mxGeometry x="-0.1867" y="-3" relative="1" as="geometry">
            <mxPoint x="10" y="-3" as="offset" />
          </mxGeometry>
        </mxCell>
        <mxCell id="InZTx-NVTbnGkAL5Rg_h-28" value="Clicks Add Experiment button" style="rounded=0;whiteSpace=wrap;html=1;fillColor=#dae8fc;strokeColor=#6c8ebf;" parent="1" vertex="1">
          <mxGeometry x="500" y="350" width="120" height="60" as="geometry" />
        </mxCell>
        <mxCell id="InZTx-NVTbnGkAL5Rg_h-33" style="edgeStyle=orthogonalEdgeStyle;rounded=0;orthogonalLoop=1;jettySize=auto;html=1;entryX=0;entryY=0.5;entryDx=0;entryDy=0;" parent="1" source="InZTx-NVTbnGkAL5Rg_h-30" target="InZTx-NVTbnGkAL5Rg_h-32" edge="1">
          <mxGeometry relative="1" as="geometry" />
        </mxCell>
        <mxCell id="InZTx-NVTbnGkAL5Rg_h-34" value="Navigates" style="edgeLabel;html=1;align=center;verticalAlign=middle;resizable=0;points=[];" parent="InZTx-NVTbnGkAL5Rg_h-33" vertex="1" connectable="0">
          <mxGeometry x="0.0267" y="-1" relative="1" as="geometry">
            <mxPoint as="offset" />
          </mxGeometry>
        </mxCell>
        <mxCell id="InZTx-NVTbnGkAL5Rg_h-30" value="Clicks existing experiment" style="rounded=0;whiteSpace=wrap;html=1;fillColor=#dae8fc;strokeColor=#6c8ebf;" parent="1" vertex="1">
          <mxGeometry x="504" y="590" width="120" height="60" as="geometry" />
        </mxCell>
        <mxCell id="InZTx-NVTbnGkAL5Rg_h-49" style="edgeStyle=orthogonalEdgeStyle;rounded=0;orthogonalLoop=1;jettySize=auto;html=1;" parent="1" source="InZTx-NVTbnGkAL5Rg_h-32" edge="1">
          <mxGeometry relative="1" as="geometry">
            <mxPoint x="914" y="620" as="targetPoint" />
          </mxGeometry>
        </mxCell>
        <mxCell id="InZTx-NVTbnGkAL5Rg_h-32" value="Experiment view" style="rounded=0;whiteSpace=wrap;html=1;fillColor=#d5e8d4;strokeColor=#82b366;" parent="1" vertex="1">
          <mxGeometry x="724" y="590" width="120" height="60" as="geometry" />
        </mxCell>
        <mxCell id="InZTx-NVTbnGkAL5Rg_h-41" style="edgeStyle=orthogonalEdgeStyle;rounded=0;orthogonalLoop=1;jettySize=auto;html=1;" parent="1" source="InZTx-NVTbnGkAL5Rg_h-36" target="InZTx-NVTbnGkAL5Rg_h-39" edge="1">
          <mxGeometry relative="1" as="geometry" />
        </mxCell>
        <mxCell id="InZTx-NVTbnGkAL5Rg_h-36" value="Create Experiment" style="rounded=0;whiteSpace=wrap;html=1;fillColor=#d5e8d4;strokeColor=#82b366;" parent="1" vertex="1">
          <mxGeometry x="720" y="350" width="120" height="60" as="geometry" />
        </mxCell>
        <mxCell id="InZTx-NVTbnGkAL5Rg_h-43" style="edgeStyle=orthogonalEdgeStyle;rounded=0;orthogonalLoop=1;jettySize=auto;html=1;exitX=1;exitY=0.5;exitDx=0;exitDy=0;" parent="1" source="InZTx-NVTbnGkAL5Rg_h-39" target="InZTx-NVTbnGkAL5Rg_h-42" edge="1">
          <mxGeometry relative="1" as="geometry" />
        </mxCell>
        <mxCell id="InZTx-NVTbnGkAL5Rg_h-39" value="Fills in all required fields" style="rounded=0;whiteSpace=wrap;html=1;fillColor=#dae8fc;strokeColor=#6c8ebf;" parent="1" vertex="1">
          <mxGeometry x="890" y="350" width="120" height="60" as="geometry" />
        </mxCell>
        <mxCell id="InZTx-NVTbnGkAL5Rg_h-45" style="edgeStyle=orthogonalEdgeStyle;rounded=0;orthogonalLoop=1;jettySize=auto;html=1;entryX=0.75;entryY=1;entryDx=0;entryDy=0;exitX=0.5;exitY=0;exitDx=0;exitDy=0;" parent="1" source="InZTx-NVTbnGkAL5Rg_h-135" target="InZTx-NVTbnGkAL5Rg_h-4" edge="1">
          <mxGeometry relative="1" as="geometry">
            <Array as="points">
              <mxPoint x="1280" y="330" />
              <mxPoint x="376" y="330" />
            </Array>
          </mxGeometry>
        </mxCell>
        <mxCell id="InZTx-NVTbnGkAL5Rg_h-46" value="Navigates" style="edgeLabel;html=1;align=center;verticalAlign=middle;resizable=0;points=[];" parent="InZTx-NVTbnGkAL5Rg_h-45" vertex="1" connectable="0">
          <mxGeometry x="0.237" y="3" relative="1" as="geometry">
            <mxPoint y="-3" as="offset" />
          </mxGeometry>
        </mxCell>
        <mxCell id="InZTx-NVTbnGkAL5Rg_h-136" style="edgeStyle=orthogonalEdgeStyle;rounded=0;orthogonalLoop=1;jettySize=auto;html=1;" parent="1" source="InZTx-NVTbnGkAL5Rg_h-42" target="InZTx-NVTbnGkAL5Rg_h-135" edge="1">
          <mxGeometry relative="1" as="geometry" />
        </mxCell>
        <mxCell id="InZTx-NVTbnGkAL5Rg_h-42" value="Clicks Save Experiment button" style="rounded=0;whiteSpace=wrap;html=1;fillColor=#dae8fc;strokeColor=#6c8ebf;" parent="1" vertex="1">
          <mxGeometry x="1070" y="350" width="120" height="60" as="geometry" />
        </mxCell>
        <mxCell id="InZTx-NVTbnGkAL5Rg_h-57" style="edgeStyle=orthogonalEdgeStyle;rounded=0;orthogonalLoop=1;jettySize=auto;html=1;exitX=0.5;exitY=1;exitDx=0;exitDy=0;" parent="1" source="InZTx-NVTbnGkAL5Rg_h-53" target="InZTx-NVTbnGkAL5Rg_h-56" edge="1">
          <mxGeometry relative="1" as="geometry" />
        </mxCell>
        <mxCell id="InZTx-NVTbnGkAL5Rg_h-53" value="Clicks delete experiment" style="rounded=0;whiteSpace=wrap;html=1;fillColor=#dae8fc;strokeColor=#6c8ebf;" parent="1" vertex="1">
          <mxGeometry x="894" y="740" width="120" height="60" as="geometry" />
        </mxCell>
        <mxCell id="InZTx-NVTbnGkAL5Rg_h-62" style="edgeStyle=orthogonalEdgeStyle;rounded=0;orthogonalLoop=1;jettySize=auto;html=1;exitX=0.5;exitY=1;exitDx=0;exitDy=0;entryX=1;entryY=0.5;entryDx=0;entryDy=0;" parent="1" source="InZTx-NVTbnGkAL5Rg_h-56" target="InZTx-NVTbnGkAL5Rg_h-58" edge="1">
          <mxGeometry relative="1" as="geometry" />
        </mxCell>
        <mxCell id="InZTx-NVTbnGkAL5Rg_h-63" value="Yes" style="edgeLabel;html=1;align=center;verticalAlign=middle;resizable=0;points=[];" parent="InZTx-NVTbnGkAL5Rg_h-62" vertex="1" connectable="0">
          <mxGeometry x="-0.7937" y="-2" relative="1" as="geometry">
            <mxPoint x="1" y="6" as="offset" />
          </mxGeometry>
        </mxCell>
        <mxCell id="InZTx-NVTbnGkAL5Rg_h-65" style="edgeStyle=orthogonalEdgeStyle;rounded=0;orthogonalLoop=1;jettySize=auto;html=1;exitX=0;exitY=0.5;exitDx=0;exitDy=0;" parent="1" source="InZTx-NVTbnGkAL5Rg_h-56" target="InZTx-NVTbnGkAL5Rg_h-32" edge="1">
          <mxGeometry relative="1" as="geometry">
            <Array as="points">
              <mxPoint x="474" y="910" />
              <mxPoint x="474" y="680" />
              <mxPoint x="784" y="680" />
            </Array>
          </mxGeometry>
        </mxCell>
        <mxCell id="InZTx-NVTbnGkAL5Rg_h-66" value="No" style="edgeLabel;html=1;align=center;verticalAlign=middle;resizable=0;points=[];" parent="InZTx-NVTbnGkAL5Rg_h-65" vertex="1" connectable="0">
          <mxGeometry x="-0.8728" relative="1" as="geometry">
            <mxPoint as="offset" />
          </mxGeometry>
        </mxCell>
        <mxCell id="InZTx-NVTbnGkAL5Rg_h-56" value="Confirm deletion?" style="rhombus;whiteSpace=wrap;html=1;" parent="1" vertex="1">
          <mxGeometry x="914" y="870" width="80" height="80" as="geometry" />
        </mxCell>
        <mxCell id="InZTx-NVTbnGkAL5Rg_h-61" style="edgeStyle=orthogonalEdgeStyle;rounded=0;orthogonalLoop=1;jettySize=auto;html=1;entryX=0.042;entryY=0.987;entryDx=0;entryDy=0;entryPerimeter=0;" parent="1" source="InZTx-NVTbnGkAL5Rg_h-58" target="InZTx-NVTbnGkAL5Rg_h-4" edge="1">
          <mxGeometry relative="1" as="geometry" />
        </mxCell>
        <mxCell id="InZTx-NVTbnGkAL5Rg_h-64" value="Navigates" style="edgeLabel;html=1;align=center;verticalAlign=middle;resizable=0;points=[];" parent="InZTx-NVTbnGkAL5Rg_h-61" vertex="1" connectable="0">
          <mxGeometry x="-0.1771" relative="1" as="geometry">
            <mxPoint as="offset" />
          </mxGeometry>
        </mxCell>
        <mxCell id="InZTx-NVTbnGkAL5Rg_h-58" value="Deletes Experiment" style="rounded=0;whiteSpace=wrap;html=1;fillColor=#ffe6cc;strokeColor=#d79b00;" parent="1" vertex="1">
          <mxGeometry x="434" y="1000" width="120" height="60" as="geometry" />
        </mxCell>
        <mxCell id="InZTx-NVTbnGkAL5Rg_h-82" style="edgeStyle=orthogonalEdgeStyle;rounded=0;orthogonalLoop=1;jettySize=auto;html=1;exitX=0.5;exitY=1;exitDx=0;exitDy=0;" parent="1" source="InZTx-NVTbnGkAL5Rg_h-70" target="InZTx-NVTbnGkAL5Rg_h-81" edge="1">
          <mxGeometry relative="1" as="geometry" />
        </mxCell>
        <mxCell id="InZTx-NVTbnGkAL5Rg_h-70" value="Clicks edit experiment" style="rounded=0;whiteSpace=wrap;html=1;fillColor=#dae8fc;strokeColor=#6c8ebf;" parent="1" vertex="1">
          <mxGeometry x="711" y="740" width="120" height="60" as="geometry" />
        </mxCell>
        <mxCell id="InZTx-NVTbnGkAL5Rg_h-74" style="edgeStyle=orthogonalEdgeStyle;rounded=0;orthogonalLoop=1;jettySize=auto;html=1;entryX=0.5;entryY=0;entryDx=0;entryDy=0;" parent="1" source="InZTx-NVTbnGkAL5Rg_h-71" target="InZTx-NVTbnGkAL5Rg_h-70" edge="1">
          <mxGeometry relative="1" as="geometry">
            <Array as="points">
              <mxPoint x="954" y="710" />
              <mxPoint x="771" y="710" />
            </Array>
          </mxGeometry>
        </mxCell>
        <mxCell id="InZTx-NVTbnGkAL5Rg_h-79" style="edgeStyle=orthogonalEdgeStyle;rounded=0;orthogonalLoop=1;jettySize=auto;html=1;exitX=0.5;exitY=1;exitDx=0;exitDy=0;entryX=0.5;entryY=0;entryDx=0;entryDy=0;" parent="1" source="InZTx-NVTbnGkAL5Rg_h-71" target="InZTx-NVTbnGkAL5Rg_h-53" edge="1">
          <mxGeometry relative="1" as="geometry" />
        </mxCell>
        <mxCell id="InZTx-NVTbnGkAL5Rg_h-87" style="edgeStyle=orthogonalEdgeStyle;rounded=0;orthogonalLoop=1;jettySize=auto;html=1;entryX=0.5;entryY=1;entryDx=0;entryDy=0;" parent="1" source="InZTx-NVTbnGkAL5Rg_h-71" target="InZTx-NVTbnGkAL5Rg_h-89" edge="1">
          <mxGeometry relative="1" as="geometry">
            <mxPoint x="954" y="530" as="targetPoint" />
          </mxGeometry>
        </mxCell>
        <mxCell id="InZTx-NVTbnGkAL5Rg_h-107" style="edgeStyle=orthogonalEdgeStyle;rounded=0;orthogonalLoop=1;jettySize=auto;html=1;exitX=0.5;exitY=1;exitDx=0;exitDy=0;entryX=0;entryY=1;entryDx=0;entryDy=0;" parent="1" source="InZTx-NVTbnGkAL5Rg_h-71" target="InZTx-NVTbnGkAL5Rg_h-119" edge="1">
          <mxGeometry relative="1" as="geometry">
            <mxPoint x="1150" y="650" as="targetPoint" />
            <Array as="points">
              <mxPoint x="954" y="710" />
              <mxPoint x="1181" y="710" />
            </Array>
          </mxGeometry>
        </mxCell>
        <mxCell id="InZTx-NVTbnGkAL5Rg_h-115" value="Not started" style="edgeLabel;html=1;align=center;verticalAlign=middle;resizable=0;points=[];" parent="InZTx-NVTbnGkAL5Rg_h-107" vertex="1" connectable="0">
          <mxGeometry x="-0.8534" relative="1" as="geometry">
            <mxPoint as="offset" />
          </mxGeometry>
        </mxCell>
        <mxCell id="InZTx-NVTbnGkAL5Rg_h-109" style="edgeStyle=orthogonalEdgeStyle;rounded=0;orthogonalLoop=1;jettySize=auto;html=1;entryX=0;entryY=0.5;entryDx=0;entryDy=0;" parent="1" source="InZTx-NVTbnGkAL5Rg_h-71" target="InZTx-NVTbnGkAL5Rg_h-119" edge="1">
          <mxGeometry relative="1" as="geometry">
            <mxPoint x="1090" y="620" as="targetPoint" />
          </mxGeometry>
        </mxCell>
        <mxCell id="InZTx-NVTbnGkAL5Rg_h-110" value="Finished" style="edgeLabel;html=1;align=center;verticalAlign=middle;resizable=0;points=[];" parent="InZTx-NVTbnGkAL5Rg_h-109" vertex="1" connectable="0">
          <mxGeometry x="-0.1111" y="-3" relative="1" as="geometry">
            <mxPoint y="-3" as="offset" />
          </mxGeometry>
        </mxCell>
        <mxCell id="InZTx-NVTbnGkAL5Rg_h-113" style="edgeStyle=orthogonalEdgeStyle;rounded=0;orthogonalLoop=1;jettySize=auto;html=1;exitX=0.5;exitY=0;exitDx=0;exitDy=0;entryX=0;entryY=0;entryDx=0;entryDy=0;" parent="1" source="InZTx-NVTbnGkAL5Rg_h-71" target="InZTx-NVTbnGkAL5Rg_h-119" edge="1">
          <mxGeometry relative="1" as="geometry">
            <mxPoint x="1190" y="550" as="targetPoint" />
            <Array as="points">
              <mxPoint x="954" y="540" />
              <mxPoint x="1181" y="540" />
            </Array>
          </mxGeometry>
        </mxCell>
        <mxCell id="InZTx-NVTbnGkAL5Rg_h-114" value="Live" style="edgeLabel;html=1;align=center;verticalAlign=middle;resizable=0;points=[];" parent="InZTx-NVTbnGkAL5Rg_h-113" vertex="1" connectable="0">
          <mxGeometry x="-0.8868" relative="1" as="geometry">
            <mxPoint y="-3" as="offset" />
          </mxGeometry>
        </mxCell>
        <mxCell id="InZTx-NVTbnGkAL5Rg_h-71" value="Actions for each experiment state" style="rhombus;whiteSpace=wrap;html=1;" parent="1" vertex="1">
          <mxGeometry x="914" y="580" width="80" height="80" as="geometry" />
        </mxCell>
        <mxCell id="InZTx-NVTbnGkAL5Rg_h-84" style="edgeStyle=orthogonalEdgeStyle;rounded=0;orthogonalLoop=1;jettySize=auto;html=1;" parent="1" source="InZTx-NVTbnGkAL5Rg_h-81" target="InZTx-NVTbnGkAL5Rg_h-83" edge="1">
          <mxGeometry relative="1" as="geometry" />
        </mxCell>
        <mxCell id="InZTx-NVTbnGkAL5Rg_h-81" value="Fills in new fields" style="rounded=0;whiteSpace=wrap;html=1;fillColor=#dae8fc;strokeColor=#6c8ebf;" parent="1" vertex="1">
          <mxGeometry x="711" y="830" width="120" height="60" as="geometry" />
        </mxCell>
        <mxCell id="InZTx-NVTbnGkAL5Rg_h-85" style="edgeStyle=orthogonalEdgeStyle;rounded=0;orthogonalLoop=1;jettySize=auto;html=1;exitX=0.5;exitY=0;exitDx=0;exitDy=0;" parent="1" source="InZTx-NVTbnGkAL5Rg_h-137" target="InZTx-NVTbnGkAL5Rg_h-32" edge="1">
          <mxGeometry relative="1" as="geometry">
            <Array as="points">
              <mxPoint x="614" y="680" />
              <mxPoint x="784" y="680" />
            </Array>
          </mxGeometry>
        </mxCell>
        <mxCell id="InZTx-NVTbnGkAL5Rg_h-86" value="Navigates" style="edgeLabel;html=1;align=center;verticalAlign=middle;resizable=0;points=[];" parent="InZTx-NVTbnGkAL5Rg_h-85" vertex="1" connectable="0">
          <mxGeometry x="-0.7341" y="-1" relative="1" as="geometry">
            <mxPoint as="offset" />
          </mxGeometry>
        </mxCell>
        <mxCell id="InZTx-NVTbnGkAL5Rg_h-138" style="edgeStyle=orthogonalEdgeStyle;rounded=0;orthogonalLoop=1;jettySize=auto;html=1;entryX=0.5;entryY=1;entryDx=0;entryDy=0;" parent="1" source="InZTx-NVTbnGkAL5Rg_h-83" target="InZTx-NVTbnGkAL5Rg_h-137" edge="1">
          <mxGeometry relative="1" as="geometry" />
        </mxCell>
        <mxCell id="InZTx-NVTbnGkAL5Rg_h-83" value="Clicks save" style="rounded=0;whiteSpace=wrap;html=1;fillColor=#dae8fc;strokeColor=#6c8ebf;" parent="1" vertex="1">
          <mxGeometry x="554" y="830" width="120" height="60" as="geometry" />
        </mxCell>
        <mxCell id="InZTx-NVTbnGkAL5Rg_h-92" style="edgeStyle=orthogonalEdgeStyle;rounded=0;orthogonalLoop=1;jettySize=auto;html=1;exitX=0;exitY=0.5;exitDx=0;exitDy=0;entryX=1;entryY=0.5;entryDx=0;entryDy=0;" parent="1" source="InZTx-NVTbnGkAL5Rg_h-89" target="InZTx-NVTbnGkAL5Rg_h-91" edge="1">
          <mxGeometry relative="1" as="geometry" />
        </mxCell>
        <mxCell id="InZTx-NVTbnGkAL5Rg_h-89" value="Clicks Stop Experiment" style="rounded=0;whiteSpace=wrap;html=1;fillColor=#dae8fc;strokeColor=#6c8ebf;" parent="1" vertex="1">
          <mxGeometry x="894" y="450" width="120" height="60" as="geometry" />
        </mxCell>
        <mxCell id="InZTx-NVTbnGkAL5Rg_h-93" style="edgeStyle=orthogonalEdgeStyle;rounded=0;orthogonalLoop=1;jettySize=auto;html=1;entryX=0.5;entryY=0;entryDx=0;entryDy=0;" parent="1" source="InZTx-NVTbnGkAL5Rg_h-91" target="InZTx-NVTbnGkAL5Rg_h-32" edge="1">
          <mxGeometry relative="1" as="geometry" />
        </mxCell>
        <mxCell id="InZTx-NVTbnGkAL5Rg_h-94" value="No" style="edgeLabel;html=1;align=center;verticalAlign=middle;resizable=0;points=[];" parent="InZTx-NVTbnGkAL5Rg_h-93" vertex="1" connectable="0">
          <mxGeometry x="-0.2111" y="2" relative="1" as="geometry">
            <mxPoint x="-3" as="offset" />
          </mxGeometry>
        </mxCell>
        <mxCell id="InZTx-NVTbnGkAL5Rg_h-96" style="edgeStyle=orthogonalEdgeStyle;rounded=0;orthogonalLoop=1;jettySize=auto;html=1;" parent="1" source="InZTx-NVTbnGkAL5Rg_h-91" target="InZTx-NVTbnGkAL5Rg_h-95" edge="1">
          <mxGeometry relative="1" as="geometry" />
        </mxCell>
        <mxCell id="InZTx-NVTbnGkAL5Rg_h-97" value="Yes" style="edgeLabel;html=1;align=center;verticalAlign=middle;resizable=0;points=[];" parent="InZTx-NVTbnGkAL5Rg_h-96" vertex="1" connectable="0">
          <mxGeometry x="-0.1264" y="4" relative="1" as="geometry">
            <mxPoint x="-6" y="-3" as="offset" />
          </mxGeometry>
        </mxCell>
        <mxCell id="InZTx-NVTbnGkAL5Rg_h-91" value="Confirms stopping experiment" style="rhombus;whiteSpace=wrap;html=1;" parent="1" vertex="1">
          <mxGeometry x="736" y="430" width="96" height="100" as="geometry" />
        </mxCell>
        <mxCell id="InZTx-NVTbnGkAL5Rg_h-98" style="edgeStyle=orthogonalEdgeStyle;rounded=0;orthogonalLoop=1;jettySize=auto;html=1;" parent="1" source="InZTx-NVTbnGkAL5Rg_h-95" target="InZTx-NVTbnGkAL5Rg_h-4" edge="1">
          <mxGeometry relative="1" as="geometry">
            <Array as="points">
              <mxPoint x="320" y="480" />
            </Array>
          </mxGeometry>
        </mxCell>
        <mxCell id="InZTx-NVTbnGkAL5Rg_h-99" value="Navigates" style="edgeLabel;html=1;align=center;verticalAlign=middle;resizable=0;points=[];" parent="InZTx-NVTbnGkAL5Rg_h-98" vertex="1" connectable="0">
          <mxGeometry x="-0.5379" y="2" relative="1" as="geometry">
            <mxPoint as="offset" />
          </mxGeometry>
        </mxCell>
        <mxCell id="InZTx-NVTbnGkAL5Rg_h-95" value="Stops Experiment" style="rounded=0;whiteSpace=wrap;html=1;fillColor=#ffe6cc;strokeColor=#d79b00;" parent="1" vertex="1">
          <mxGeometry x="500" y="450" width="120" height="60" as="geometry" />
        </mxCell>
        <mxCell id="InZTx-NVTbnGkAL5Rg_h-174" style="edgeStyle=orthogonalEdgeStyle;rounded=0;orthogonalLoop=1;jettySize=auto;html=1;" parent="1" source="InZTx-NVTbnGkAL5Rg_h-103" target="InZTx-NVTbnGkAL5Rg_h-148" edge="1">
          <mxGeometry relative="1" as="geometry" />
        </mxCell>
        <mxCell id="InZTx-NVTbnGkAL5Rg_h-177" value="Navigates" style="edgeLabel;html=1;align=center;verticalAlign=middle;resizable=0;points=[];" parent="InZTx-NVTbnGkAL5Rg_h-174" vertex="1" connectable="0">
          <mxGeometry x="-0.0286" relative="1" as="geometry">
            <mxPoint x="-3" as="offset" />
          </mxGeometry>
        </mxCell>
        <mxCell id="InZTx-NVTbnGkAL5Rg_h-103" value="Clicks View Messages" style="rounded=0;whiteSpace=wrap;html=1;fillColor=#dae8fc;strokeColor=#6c8ebf;" parent="1" vertex="1">
          <mxGeometry x="1290" y="510" width="120" height="60" as="geometry" />
        </mxCell>
        <mxCell id="InZTx-NVTbnGkAL5Rg_h-123" style="edgeStyle=orthogonalEdgeStyle;rounded=0;orthogonalLoop=1;jettySize=auto;html=1;entryX=0;entryY=0.5;entryDx=0;entryDy=0;" parent="1" source="InZTx-NVTbnGkAL5Rg_h-119" target="InZTx-NVTbnGkAL5Rg_h-103" edge="1">
          <mxGeometry relative="1" as="geometry" />
        </mxCell>
        <mxCell id="InZTx-NVTbnGkAL5Rg_h-124" style="edgeStyle=orthogonalEdgeStyle;rounded=0;orthogonalLoop=1;jettySize=auto;html=1;exitX=1;exitY=0.5;exitDx=0;exitDy=0;entryX=0;entryY=0.5;entryDx=0;entryDy=0;" parent="1" source="InZTx-NVTbnGkAL5Rg_h-119" target="InZTx-NVTbnGkAL5Rg_h-122" edge="1">
          <mxGeometry relative="1" as="geometry" />
        </mxCell>
        <mxCell id="InZTx-NVTbnGkAL5Rg_h-119" value="Select view option" style="rhombus;whiteSpace=wrap;html=1;" parent="1" vertex="1">
          <mxGeometry x="1162" y="580" width="80" height="80" as="geometry" />
        </mxCell>
        <mxCell id="InZTx-NVTbnGkAL5Rg_h-128" style="edgeStyle=orthogonalEdgeStyle;rounded=0;orthogonalLoop=1;jettySize=auto;html=1;exitX=0.5;exitY=0;exitDx=0;exitDy=0;entryX=0;entryY=0.5;entryDx=0;entryDy=0;" parent="1" source="InZTx-NVTbnGkAL5Rg_h-120" target="InZTx-NVTbnGkAL5Rg_h-126" edge="1">
          <mxGeometry relative="1" as="geometry" />
        </mxCell>
        <mxCell id="InZTx-NVTbnGkAL5Rg_h-120" value="Selects an experiment" style="rounded=0;whiteSpace=wrap;html=1;fillColor=#dae8fc;strokeColor=#6c8ebf;" parent="1" vertex="1">
          <mxGeometry x="800" y="247" width="120" height="60" as="geometry" />
        </mxCell>
        <mxCell id="InZTx-NVTbnGkAL5Rg_h-175" style="edgeStyle=orthogonalEdgeStyle;rounded=0;orthogonalLoop=1;jettySize=auto;html=1;exitX=1;exitY=0.5;exitDx=0;exitDy=0;entryX=0;entryY=0.5;entryDx=0;entryDy=0;" parent="1" source="InZTx-NVTbnGkAL5Rg_h-122" target="InZTx-NVTbnGkAL5Rg_h-149" edge="1">
          <mxGeometry relative="1" as="geometry" />
        </mxCell>
        <mxCell id="InZTx-NVTbnGkAL5Rg_h-176" value="Navigates" style="edgeLabel;html=1;align=center;verticalAlign=middle;resizable=0;points=[];" parent="InZTx-NVTbnGkAL5Rg_h-175" vertex="1" connectable="0">
          <mxGeometry x="-0.0286" y="-2" relative="1" as="geometry">
            <mxPoint x="-1" y="-3" as="offset" />
          </mxGeometry>
        </mxCell>
        <mxCell id="InZTx-NVTbnGkAL5Rg_h-122" value="Clicks View Questionnaires" style="rounded=0;whiteSpace=wrap;html=1;fillColor=#dae8fc;strokeColor=#6c8ebf;" parent="1" vertex="1">
          <mxGeometry x="1290" y="670" width="120" height="60" as="geometry" />
        </mxCell>
        <mxCell id="InZTx-NVTbnGkAL5Rg_h-144" style="edgeStyle=orthogonalEdgeStyle;rounded=0;orthogonalLoop=1;jettySize=auto;html=1;" parent="1" source="InZTx-NVTbnGkAL5Rg_h-125" target="InZTx-NVTbnGkAL5Rg_h-140" edge="1">
          <mxGeometry relative="1" as="geometry" />
        </mxCell>
        <mxCell id="InZTx-NVTbnGkAL5Rg_h-125" value="Clicks download conveyances" style="rounded=0;whiteSpace=wrap;html=1;fillColor=#dae8fc;strokeColor=#6c8ebf;" parent="1" vertex="1">
          <mxGeometry x="1115" y="-52" width="120" height="60" as="geometry" />
        </mxCell>
        <mxCell id="InZTx-NVTbnGkAL5Rg_h-129" style="edgeStyle=orthogonalEdgeStyle;rounded=0;orthogonalLoop=1;jettySize=auto;html=1;exitX=0.5;exitY=0;exitDx=0;exitDy=0;entryX=0;entryY=0.5;entryDx=0;entryDy=0;" parent="1" source="InZTx-NVTbnGkAL5Rg_h-126" target="InZTx-NVTbnGkAL5Rg_h-125" edge="1">
          <mxGeometry relative="1" as="geometry" />
        </mxCell>
        <mxCell id="InZTx-NVTbnGkAL5Rg_h-133" style="edgeStyle=orthogonalEdgeStyle;rounded=0;orthogonalLoop=1;jettySize=auto;html=1;exitX=1;exitY=0.5;exitDx=0;exitDy=0;" parent="1" source="InZTx-NVTbnGkAL5Rg_h-126" target="InZTx-NVTbnGkAL5Rg_h-132" edge="1">
          <mxGeometry relative="1" as="geometry" />
        </mxCell>
        <mxCell id="InZTx-NVTbnGkAL5Rg_h-235" style="edgeStyle=orthogonalEdgeStyle;rounded=0;orthogonalLoop=1;jettySize=auto;html=1;exitX=0.5;exitY=1;exitDx=0;exitDy=0;entryX=0;entryY=0.5;entryDx=0;entryDy=0;" parent="1" source="InZTx-NVTbnGkAL5Rg_h-126" target="InZTx-NVTbnGkAL5Rg_h-234" edge="1">
          <mxGeometry relative="1" as="geometry" />
        </mxCell>
        <mxCell id="InZTx-NVTbnGkAL5Rg_h-126" value="Experiment export Options" style="rhombus;whiteSpace=wrap;html=1;" parent="1" vertex="1">
          <mxGeometry x="985" y="38" width="90" height="100" as="geometry" />
        </mxCell>
        <mxCell id="InZTx-NVTbnGkAL5Rg_h-130" value="Downloads conveyances as CSV" style="rounded=0;whiteSpace=wrap;html=1;fillColor=#ffe6cc;strokeColor=#d79b00;" parent="1" vertex="1">
          <mxGeometry x="1595" y="-52" width="120" height="60" as="geometry" />
        </mxCell>
        <mxCell id="InZTx-NVTbnGkAL5Rg_h-143" style="edgeStyle=orthogonalEdgeStyle;rounded=0;orthogonalLoop=1;jettySize=auto;html=1;" parent="1" source="InZTx-NVTbnGkAL5Rg_h-132" target="InZTx-NVTbnGkAL5Rg_h-139" edge="1">
          <mxGeometry relative="1" as="geometry" />
        </mxCell>
        <mxCell id="InZTx-NVTbnGkAL5Rg_h-132" value="Clicks download responses" style="rounded=0;whiteSpace=wrap;html=1;fillColor=#dae8fc;strokeColor=#6c8ebf;" parent="1" vertex="1">
          <mxGeometry x="1115" y="58" width="120" height="60" as="geometry" />
        </mxCell>
        <mxCell id="InZTx-NVTbnGkAL5Rg_h-134" value="Downloads responses as CSV" style="rounded=0;whiteSpace=wrap;html=1;fillColor=#ffe6cc;strokeColor=#d79b00;" parent="1" vertex="1">
          <mxGeometry x="1595" y="58" width="120" height="60" as="geometry" />
        </mxCell>
        <mxCell id="InZTx-NVTbnGkAL5Rg_h-135" value="Saves experiment" style="rounded=0;whiteSpace=wrap;html=1;fillColor=#ffe6cc;strokeColor=#d79b00;" parent="1" vertex="1">
          <mxGeometry x="1220" y="350" width="120" height="60" as="geometry" />
        </mxCell>
        <mxCell id="InZTx-NVTbnGkAL5Rg_h-137" value="Updates the experiment" style="rounded=0;whiteSpace=wrap;html=1;fillColor=#ffe6cc;strokeColor=#d79b00;" parent="1" vertex="1">
          <mxGeometry x="554" y="740" width="120" height="60" as="geometry" />
        </mxCell>
        <mxCell id="InZTx-NVTbnGkAL5Rg_h-146" style="edgeStyle=orthogonalEdgeStyle;rounded=0;orthogonalLoop=1;jettySize=auto;html=1;entryX=0;entryY=0.5;entryDx=0;entryDy=0;" parent="1" source="InZTx-NVTbnGkAL5Rg_h-139" target="InZTx-NVTbnGkAL5Rg_h-141" edge="1">
          <mxGeometry relative="1" as="geometry" />
        </mxCell>
        <mxCell id="InZTx-NVTbnGkAL5Rg_h-139" value="Shows preview of CSV" style="rounded=0;whiteSpace=wrap;html=1;fillColor=#ffe6cc;strokeColor=#d79b00;" parent="1" vertex="1">
          <mxGeometry x="1265" y="58" width="120" height="60" as="geometry" />
        </mxCell>
        <mxCell id="InZTx-NVTbnGkAL5Rg_h-145" style="edgeStyle=orthogonalEdgeStyle;rounded=0;orthogonalLoop=1;jettySize=auto;html=1;" parent="1" source="InZTx-NVTbnGkAL5Rg_h-140" target="InZTx-NVTbnGkAL5Rg_h-142" edge="1">
          <mxGeometry relative="1" as="geometry" />
        </mxCell>
        <mxCell id="InZTx-NVTbnGkAL5Rg_h-140" value="Shows preview of CSV" style="rounded=0;whiteSpace=wrap;html=1;fillColor=#ffe6cc;strokeColor=#d79b00;" parent="1" vertex="1">
          <mxGeometry x="1265" y="-52" width="120" height="60" as="geometry" />
        </mxCell>
        <mxCell id="InZTx-NVTbnGkAL5Rg_h-147" style="edgeStyle=orthogonalEdgeStyle;rounded=0;orthogonalLoop=1;jettySize=auto;html=1;entryX=0;entryY=0.5;entryDx=0;entryDy=0;" parent="1" source="InZTx-NVTbnGkAL5Rg_h-141" target="InZTx-NVTbnGkAL5Rg_h-134" edge="1">
          <mxGeometry relative="1" as="geometry" />
        </mxCell>
        <mxCell id="InZTx-NVTbnGkAL5Rg_h-141" value="Clicks download" style="rounded=0;whiteSpace=wrap;html=1;fillColor=#dae8fc;strokeColor=#6c8ebf;" parent="1" vertex="1">
          <mxGeometry x="1435" y="58" width="120" height="60" as="geometry" />
        </mxCell>
        <mxCell id="InZTx-NVTbnGkAL5Rg_h-142" value="Clicks download" style="rounded=0;whiteSpace=wrap;html=1;fillColor=#dae8fc;strokeColor=#6c8ebf;" parent="1" vertex="1">
          <mxGeometry x="1435" y="-52" width="120" height="60" as="geometry" />
        </mxCell>
        <mxCell id="InZTx-NVTbnGkAL5Rg_h-187" style="edgeStyle=orthogonalEdgeStyle;rounded=0;orthogonalLoop=1;jettySize=auto;html=1;" parent="1" source="InZTx-NVTbnGkAL5Rg_h-148" target="InZTx-NVTbnGkAL5Rg_h-186" edge="1">
          <mxGeometry relative="1" as="geometry" />
        </mxCell>
        <mxCell id="InZTx-NVTbnGkAL5Rg_h-204" style="edgeStyle=orthogonalEdgeStyle;rounded=0;orthogonalLoop=1;jettySize=auto;html=1;" parent="1" source="InZTx-NVTbnGkAL5Rg_h-148" target="InZTx-NVTbnGkAL5Rg_h-201" edge="1">
          <mxGeometry relative="1" as="geometry" />
        </mxCell>
        <mxCell id="InZTx-NVTbnGkAL5Rg_h-148" value="MessageDashboard" style="rounded=0;whiteSpace=wrap;html=1;fillColor=#d5e8d4;strokeColor=#82b366;" parent="1" vertex="1">
          <mxGeometry x="1480" y="510" width="120" height="60" as="geometry" />
        </mxCell>
        <mxCell id="InZTx-NVTbnGkAL5Rg_h-184" style="edgeStyle=orthogonalEdgeStyle;rounded=0;orthogonalLoop=1;jettySize=auto;html=1;exitX=1;exitY=0.5;exitDx=0;exitDy=0;entryX=0;entryY=0.5;entryDx=0;entryDy=0;" parent="1" source="InZTx-NVTbnGkAL5Rg_h-149" target="InZTx-NVTbnGkAL5Rg_h-182" edge="1">
          <mxGeometry relative="1" as="geometry" />
        </mxCell>
        <mxCell id="InZTx-NVTbnGkAL5Rg_h-266" style="edgeStyle=orthogonalEdgeStyle;rounded=0;orthogonalLoop=1;jettySize=auto;html=1;exitX=0.5;exitY=1;exitDx=0;exitDy=0;entryX=0.5;entryY=0;entryDx=0;entryDy=0;" parent="1" source="InZTx-NVTbnGkAL5Rg_h-149" target="InZTx-NVTbnGkAL5Rg_h-264" edge="1">
          <mxGeometry relative="1" as="geometry" />
        </mxCell>
        <mxCell id="InZTx-NVTbnGkAL5Rg_h-149" value="QuestionnaireDashboard" style="rounded=0;whiteSpace=wrap;html=1;fillColor=#d5e8d4;strokeColor=#82b366;" parent="1" vertex="1">
          <mxGeometry x="1480" y="670" width="150" height="60" as="geometry" />
        </mxCell>
        <mxCell id="InZTx-NVTbnGkAL5Rg_h-178" value="" style="edgeStyle=orthogonalEdgeStyle;rounded=0;orthogonalLoop=1;jettySize=auto;html=1;" parent="1" source="InZTx-NVTbnGkAL5Rg_h-150" target="InZTx-NVTbnGkAL5Rg_h-159" edge="1">
          <mxGeometry relative="1" as="geometry" />
        </mxCell>
        <mxCell id="InZTx-NVTbnGkAL5Rg_h-179" value="Navigates" style="edgeLabel;html=1;align=center;verticalAlign=middle;resizable=0;points=[];" parent="InZTx-NVTbnGkAL5Rg_h-178" vertex="1" connectable="0">
          <mxGeometry x="-0.0112" y="-2" relative="1" as="geometry">
            <mxPoint y="-2" as="offset" />
          </mxGeometry>
        </mxCell>
        <mxCell id="InZTx-NVTbnGkAL5Rg_h-150" value="Clicks Add Messages button" style="rounded=0;whiteSpace=wrap;html=1;fillColor=#dae8fc;strokeColor=#6c8ebf;" parent="1" vertex="1">
          <mxGeometry x="1811" y="500" width="120" height="60" as="geometry" />
        </mxCell>
        <mxCell id="InZTx-NVTbnGkAL5Rg_h-180" style="edgeStyle=orthogonalEdgeStyle;rounded=0;orthogonalLoop=1;jettySize=auto;html=1;entryX=0;entryY=0.5;entryDx=0;entryDy=0;" parent="1" source="InZTx-NVTbnGkAL5Rg_h-151" target="InZTx-NVTbnGkAL5Rg_h-166" edge="1">
          <mxGeometry relative="1" as="geometry" />
        </mxCell>
        <mxCell id="InZTx-NVTbnGkAL5Rg_h-181" value="Navigates" style="edgeLabel;html=1;align=center;verticalAlign=middle;resizable=0;points=[];" parent="InZTx-NVTbnGkAL5Rg_h-180" vertex="1" connectable="0">
          <mxGeometry x="-0.0667" relative="1" as="geometry">
            <mxPoint as="offset" />
          </mxGeometry>
        </mxCell>
        <mxCell id="InZTx-NVTbnGkAL5Rg_h-151" value="Clicks Add Questionnaire button" style="rounded=0;whiteSpace=wrap;html=1;fillColor=#dae8fc;strokeColor=#6c8ebf;" parent="1" vertex="1">
          <mxGeometry x="1810" y="670" width="120" height="60" as="geometry" />
        </mxCell>
        <mxCell id="InZTx-NVTbnGkAL5Rg_h-158" style="edgeStyle=orthogonalEdgeStyle;rounded=0;orthogonalLoop=1;jettySize=auto;html=1;" parent="1" source="InZTx-NVTbnGkAL5Rg_h-159" target="InZTx-NVTbnGkAL5Rg_h-161" edge="1">
          <mxGeometry relative="1" as="geometry" />
        </mxCell>
        <mxCell id="InZTx-NVTbnGkAL5Rg_h-159" value="Create Message" style="rounded=0;whiteSpace=wrap;html=1;fillColor=#d5e8d4;strokeColor=#82b366;" parent="1" vertex="1">
          <mxGeometry x="2020" y="500" width="120" height="60" as="geometry" />
        </mxCell>
        <mxCell id="InZTx-NVTbnGkAL5Rg_h-160" style="edgeStyle=orthogonalEdgeStyle;rounded=0;orthogonalLoop=1;jettySize=auto;html=1;exitX=1;exitY=0.5;exitDx=0;exitDy=0;" parent="1" source="InZTx-NVTbnGkAL5Rg_h-161" target="InZTx-NVTbnGkAL5Rg_h-163" edge="1">
          <mxGeometry relative="1" as="geometry" />
        </mxCell>
        <mxCell id="UARyV4P7Upx-f0gmv9fA-1" value="" style="edgeStyle=orthogonalEdgeStyle;rounded=0;orthogonalLoop=1;jettySize=auto;html=1;" edge="1" parent="1" source="InZTx-NVTbnGkAL5Rg_h-161" target="InZTx-NVTbnGkAL5Rg_h-159">
          <mxGeometry relative="1" as="geometry" />
        </mxCell>
        <mxCell id="InZTx-NVTbnGkAL5Rg_h-161" value="Fills in all required fields" style="rounded=0;whiteSpace=wrap;html=1;fillColor=#dae8fc;strokeColor=#6c8ebf;" parent="1" vertex="1">
          <mxGeometry x="2190" y="500" width="120" height="60" as="geometry" />
        </mxCell>
        <mxCell id="InZTx-NVTbnGkAL5Rg_h-162" style="edgeStyle=orthogonalEdgeStyle;rounded=0;orthogonalLoop=1;jettySize=auto;html=1;" parent="1" source="InZTx-NVTbnGkAL5Rg_h-163" target="InZTx-NVTbnGkAL5Rg_h-164" edge="1">
          <mxGeometry relative="1" as="geometry" />
        </mxCell>
        <mxCell id="InZTx-NVTbnGkAL5Rg_h-163" value="Clicks Save Message button" style="rounded=0;whiteSpace=wrap;html=1;fillColor=#dae8fc;strokeColor=#6c8ebf;" parent="1" vertex="1">
          <mxGeometry x="2370" y="500" width="120" height="60" as="geometry" />
        </mxCell>
        <mxCell id="InZTx-NVTbnGkAL5Rg_h-197" style="edgeStyle=orthogonalEdgeStyle;rounded=0;orthogonalLoop=1;jettySize=auto;html=1;exitX=0.5;exitY=1;exitDx=0;exitDy=0;entryX=0.298;entryY=1.009;entryDx=0;entryDy=0;entryPerimeter=0;" parent="1" source="InZTx-NVTbnGkAL5Rg_h-164" target="InZTx-NVTbnGkAL5Rg_h-148" edge="1">
          <mxGeometry relative="1" as="geometry">
            <Array as="points">
              <mxPoint x="2580" y="610" />
              <mxPoint x="1516" y="610" />
            </Array>
          </mxGeometry>
        </mxCell>
        <mxCell id="InZTx-NVTbnGkAL5Rg_h-198" value="Navigates" style="edgeLabel;html=1;align=center;verticalAlign=middle;resizable=0;points=[];" parent="InZTx-NVTbnGkAL5Rg_h-197" vertex="1" connectable="0">
          <mxGeometry x="-0.7646" relative="1" as="geometry">
            <mxPoint x="11" as="offset" />
          </mxGeometry>
        </mxCell>
        <mxCell id="InZTx-NVTbnGkAL5Rg_h-164" value="Saves message" style="rounded=0;whiteSpace=wrap;html=1;fillColor=#ffe6cc;strokeColor=#d79b00;" parent="1" vertex="1">
          <mxGeometry x="2520" y="500" width="120" height="60" as="geometry" />
        </mxCell>
        <mxCell id="InZTx-NVTbnGkAL5Rg_h-165" style="edgeStyle=orthogonalEdgeStyle;rounded=0;orthogonalLoop=1;jettySize=auto;html=1;" parent="1" source="InZTx-NVTbnGkAL5Rg_h-166" target="InZTx-NVTbnGkAL5Rg_h-168" edge="1">
          <mxGeometry relative="1" as="geometry" />
        </mxCell>
        <mxCell id="InZTx-NVTbnGkAL5Rg_h-166" value="Create Questionnaire" style="rounded=0;whiteSpace=wrap;html=1;fillColor=#d5e8d4;strokeColor=#82b366;" parent="1" vertex="1">
          <mxGeometry x="2020" y="670" width="120" height="60" as="geometry" />
        </mxCell>
        <mxCell id="InZTx-NVTbnGkAL5Rg_h-167" style="edgeStyle=orthogonalEdgeStyle;rounded=0;orthogonalLoop=1;jettySize=auto;html=1;exitX=1;exitY=0.5;exitDx=0;exitDy=0;" parent="1" source="InZTx-NVTbnGkAL5Rg_h-168" target="InZTx-NVTbnGkAL5Rg_h-170" edge="1">
          <mxGeometry relative="1" as="geometry" />
        </mxCell>
        <mxCell id="InZTx-NVTbnGkAL5Rg_h-168" value="Fills in all required fields" style="rounded=0;whiteSpace=wrap;html=1;fillColor=#dae8fc;strokeColor=#6c8ebf;" parent="1" vertex="1">
          <mxGeometry x="2190" y="670" width="120" height="60" as="geometry" />
        </mxCell>
        <mxCell id="InZTx-NVTbnGkAL5Rg_h-169" style="edgeStyle=orthogonalEdgeStyle;rounded=0;orthogonalLoop=1;jettySize=auto;html=1;" parent="1" source="InZTx-NVTbnGkAL5Rg_h-170" target="InZTx-NVTbnGkAL5Rg_h-171" edge="1">
          <mxGeometry relative="1" as="geometry" />
        </mxCell>
        <mxCell id="InZTx-NVTbnGkAL5Rg_h-170" value="Clicks Save Questionnaire button" style="rounded=0;whiteSpace=wrap;html=1;fillColor=#dae8fc;strokeColor=#6c8ebf;" parent="1" vertex="1">
          <mxGeometry x="2370" y="670" width="120" height="60" as="geometry" />
        </mxCell>
        <mxCell id="InZTx-NVTbnGkAL5Rg_h-195" style="edgeStyle=orthogonalEdgeStyle;rounded=0;orthogonalLoop=1;jettySize=auto;html=1;exitX=0.5;exitY=0;exitDx=0;exitDy=0;entryX=0.25;entryY=0;entryDx=0;entryDy=0;" parent="1" source="InZTx-NVTbnGkAL5Rg_h-171" target="InZTx-NVTbnGkAL5Rg_h-149" edge="1">
          <mxGeometry relative="1" as="geometry">
            <Array as="points">
              <mxPoint x="2580" y="630" />
              <mxPoint x="1518" y="630" />
            </Array>
          </mxGeometry>
        </mxCell>
        <mxCell id="InZTx-NVTbnGkAL5Rg_h-196" value="Navigates" style="edgeLabel;html=1;align=center;verticalAlign=middle;resizable=0;points=[];" parent="InZTx-NVTbnGkAL5Rg_h-195" vertex="1" connectable="0">
          <mxGeometry x="-0.7977" y="-1" relative="1" as="geometry">
            <mxPoint as="offset" />
          </mxGeometry>
        </mxCell>
        <mxCell id="InZTx-NVTbnGkAL5Rg_h-171" value="Saves questionnaire" style="rounded=0;whiteSpace=wrap;html=1;fillColor=#ffe6cc;strokeColor=#d79b00;" parent="1" vertex="1">
          <mxGeometry x="2520" y="670" width="120" height="60" as="geometry" />
        </mxCell>
        <mxCell id="InZTx-NVTbnGkAL5Rg_h-183" style="edgeStyle=orthogonalEdgeStyle;rounded=0;orthogonalLoop=1;jettySize=auto;html=1;exitX=1;exitY=0.5;exitDx=0;exitDy=0;entryX=0;entryY=0.5;entryDx=0;entryDy=0;" parent="1" source="InZTx-NVTbnGkAL5Rg_h-182" target="InZTx-NVTbnGkAL5Rg_h-151" edge="1">
          <mxGeometry relative="1" as="geometry" />
        </mxCell>
        <mxCell id="InZTx-NVTbnGkAL5Rg_h-185" value="Yes" style="edgeLabel;html=1;align=center;verticalAlign=middle;resizable=0;points=[];" parent="InZTx-NVTbnGkAL5Rg_h-183" vertex="1" connectable="0">
          <mxGeometry x="-0.0271" relative="1" as="geometry">
            <mxPoint as="offset" />
          </mxGeometry>
        </mxCell>
        <mxCell id="InZTx-NVTbnGkAL5Rg_h-191" style="edgeStyle=orthogonalEdgeStyle;rounded=0;orthogonalLoop=1;jettySize=auto;html=1;entryX=0.5;entryY=0;entryDx=0;entryDy=0;" parent="1" source="InZTx-NVTbnGkAL5Rg_h-182" target="InZTx-NVTbnGkAL5Rg_h-149" edge="1">
          <mxGeometry relative="1" as="geometry">
            <Array as="points">
              <mxPoint x="1710" y="650" />
              <mxPoint x="1555" y="650" />
            </Array>
          </mxGeometry>
        </mxCell>
        <mxCell id="InZTx-NVTbnGkAL5Rg_h-192" value="No" style="edgeLabel;html=1;align=center;verticalAlign=middle;resizable=0;points=[];" parent="InZTx-NVTbnGkAL5Rg_h-191" vertex="1" connectable="0">
          <mxGeometry x="-0.1058" y="-1" relative="1" as="geometry">
            <mxPoint as="offset" />
          </mxGeometry>
        </mxCell>
        <mxCell id="InZTx-NVTbnGkAL5Rg_h-182" value="Did experiment not start?" style="rhombus;whiteSpace=wrap;html=1;" parent="1" vertex="1">
          <mxGeometry x="1670" y="660" width="80" height="80" as="geometry" />
        </mxCell>
        <mxCell id="InZTx-NVTbnGkAL5Rg_h-188" style="edgeStyle=orthogonalEdgeStyle;rounded=0;orthogonalLoop=1;jettySize=auto;html=1;exitX=1;exitY=0.5;exitDx=0;exitDy=0;entryX=0.022;entryY=0.662;entryDx=0;entryDy=0;entryPerimeter=0;" parent="1" source="InZTx-NVTbnGkAL5Rg_h-186" target="InZTx-NVTbnGkAL5Rg_h-150" edge="1">
          <mxGeometry relative="1" as="geometry" />
        </mxCell>
        <mxCell id="InZTx-NVTbnGkAL5Rg_h-189" value="Yes" style="edgeLabel;html=1;align=center;verticalAlign=middle;resizable=0;points=[];" parent="InZTx-NVTbnGkAL5Rg_h-188" vertex="1" connectable="0">
          <mxGeometry x="-0.0008" y="2" relative="1" as="geometry">
            <mxPoint x="-4" y="2" as="offset" />
          </mxGeometry>
        </mxCell>
        <mxCell id="InZTx-NVTbnGkAL5Rg_h-193" style="edgeStyle=orthogonalEdgeStyle;rounded=0;orthogonalLoop=1;jettySize=auto;html=1;exitX=0.5;exitY=1;exitDx=0;exitDy=0;entryX=0.5;entryY=1;entryDx=0;entryDy=0;" parent="1" source="InZTx-NVTbnGkAL5Rg_h-186" target="InZTx-NVTbnGkAL5Rg_h-148" edge="1">
          <mxGeometry relative="1" as="geometry" />
        </mxCell>
        <mxCell id="InZTx-NVTbnGkAL5Rg_h-194" value="No" style="edgeLabel;html=1;align=center;verticalAlign=middle;resizable=0;points=[];" parent="InZTx-NVTbnGkAL5Rg_h-193" vertex="1" connectable="0">
          <mxGeometry x="-0.1571" y="-2" relative="1" as="geometry">
            <mxPoint x="1" y="2" as="offset" />
          </mxGeometry>
        </mxCell>
        <mxCell id="InZTx-NVTbnGkAL5Rg_h-186" value="Did experiment&amp;nbsp; not start?" style="rhombus;whiteSpace=wrap;html=1;" parent="1" vertex="1">
          <mxGeometry x="1670" y="500" width="80" height="80" as="geometry" />
        </mxCell>
        <mxCell id="InZTx-NVTbnGkAL5Rg_h-199" style="edgeStyle=orthogonalEdgeStyle;rounded=0;orthogonalLoop=1;jettySize=auto;html=1;entryX=0;entryY=0.5;entryDx=0;entryDy=0;" parent="1" source="InZTx-NVTbnGkAL5Rg_h-201" target="InZTx-NVTbnGkAL5Rg_h-202" edge="1">
          <mxGeometry relative="1" as="geometry" />
        </mxCell>
        <mxCell id="InZTx-NVTbnGkAL5Rg_h-200" value="Navigates" style="edgeLabel;html=1;align=center;verticalAlign=middle;resizable=0;points=[];" parent="InZTx-NVTbnGkAL5Rg_h-199" vertex="1" connectable="0">
          <mxGeometry x="0.0267" y="-1" relative="1" as="geometry">
            <mxPoint as="offset" />
          </mxGeometry>
        </mxCell>
        <mxCell id="InZTx-NVTbnGkAL5Rg_h-201" value="Clicks existing message" style="rounded=0;whiteSpace=wrap;html=1;fillColor=#dae8fc;strokeColor=#6c8ebf;" parent="1" vertex="1">
          <mxGeometry x="1480" y="353.84000000000003" width="120" height="60" as="geometry" />
        </mxCell>
        <mxCell id="InZTx-NVTbnGkAL5Rg_h-210" style="edgeStyle=orthogonalEdgeStyle;rounded=0;orthogonalLoop=1;jettySize=auto;html=1;exitX=1;exitY=0.5;exitDx=0;exitDy=0;entryX=0;entryY=0.5;entryDx=0;entryDy=0;" parent="1" source="InZTx-NVTbnGkAL5Rg_h-202" target="InZTx-NVTbnGkAL5Rg_h-205" edge="1">
          <mxGeometry relative="1" as="geometry" />
        </mxCell>
        <mxCell id="InZTx-NVTbnGkAL5Rg_h-202" value="Message view" style="rounded=0;whiteSpace=wrap;html=1;fillColor=#d5e8d4;strokeColor=#82b366;" parent="1" vertex="1">
          <mxGeometry x="1700" y="353.84000000000003" width="120" height="60" as="geometry" />
        </mxCell>
        <mxCell id="InZTx-NVTbnGkAL5Rg_h-206" style="edgeStyle=orthogonalEdgeStyle;rounded=0;orthogonalLoop=1;jettySize=auto;html=1;entryX=0.5;entryY=0;entryDx=0;entryDy=0;exitX=0.5;exitY=0;exitDx=0;exitDy=0;" parent="1" source="InZTx-NVTbnGkAL5Rg_h-205" target="InZTx-NVTbnGkAL5Rg_h-202" edge="1">
          <mxGeometry relative="1" as="geometry" />
        </mxCell>
        <mxCell id="InZTx-NVTbnGkAL5Rg_h-207" value="No" style="edgeLabel;html=1;align=center;verticalAlign=middle;resizable=0;points=[];" parent="InZTx-NVTbnGkAL5Rg_h-206" vertex="1" connectable="0">
          <mxGeometry x="-0.3367" y="2" relative="1" as="geometry">
            <mxPoint as="offset" />
          </mxGeometry>
        </mxCell>
        <mxCell id="InZTx-NVTbnGkAL5Rg_h-217" style="edgeStyle=orthogonalEdgeStyle;rounded=0;orthogonalLoop=1;jettySize=auto;html=1;entryX=0;entryY=0.5;entryDx=0;entryDy=0;" parent="1" source="InZTx-NVTbnGkAL5Rg_h-205" target="InZTx-NVTbnGkAL5Rg_h-215" edge="1">
          <mxGeometry relative="1" as="geometry" />
        </mxCell>
        <mxCell id="InZTx-NVTbnGkAL5Rg_h-218" style="edgeStyle=orthogonalEdgeStyle;rounded=0;orthogonalLoop=1;jettySize=auto;html=1;exitX=1;exitY=0.5;exitDx=0;exitDy=0;entryX=0;entryY=0.5;entryDx=0;entryDy=0;" parent="1" source="InZTx-NVTbnGkAL5Rg_h-205" target="InZTx-NVTbnGkAL5Rg_h-211" edge="1">
          <mxGeometry relative="1" as="geometry" />
        </mxCell>
        <mxCell id="InZTx-NVTbnGkAL5Rg_h-219" value="Yes" style="edgeLabel;html=1;align=center;verticalAlign=middle;resizable=0;points=[];" parent="InZTx-NVTbnGkAL5Rg_h-218" vertex="1" connectable="0">
          <mxGeometry x="-0.6053" relative="1" as="geometry">
            <mxPoint as="offset" />
          </mxGeometry>
        </mxCell>
        <mxCell id="InZTx-NVTbnGkAL5Rg_h-205" value="Did experiment not start?" style="rhombus;whiteSpace=wrap;html=1;" parent="1" vertex="1">
          <mxGeometry x="1890" y="343.84" width="80" height="80" as="geometry" />
        </mxCell>
        <mxCell id="InZTx-NVTbnGkAL5Rg_h-221" style="edgeStyle=orthogonalEdgeStyle;rounded=0;orthogonalLoop=1;jettySize=auto;html=1;entryX=0;entryY=0.5;entryDx=0;entryDy=0;" parent="1" source="InZTx-NVTbnGkAL5Rg_h-211" target="InZTx-NVTbnGkAL5Rg_h-220" edge="1">
          <mxGeometry relative="1" as="geometry" />
        </mxCell>
        <mxCell id="InZTx-NVTbnGkAL5Rg_h-211" value="Clicks edit message" style="rounded=0;whiteSpace=wrap;html=1;fillColor=#dae8fc;strokeColor=#6c8ebf;" parent="1" vertex="1">
          <mxGeometry x="2100" y="293.84" width="120" height="60" as="geometry" />
        </mxCell>
        <mxCell id="InZTx-NVTbnGkAL5Rg_h-258" style="edgeStyle=orthogonalEdgeStyle;rounded=0;orthogonalLoop=1;jettySize=auto;html=1;entryX=0;entryY=0.5;entryDx=0;entryDy=0;" parent="1" source="InZTx-NVTbnGkAL5Rg_h-215" target="InZTx-NVTbnGkAL5Rg_h-254" edge="1">
          <mxGeometry relative="1" as="geometry" />
        </mxCell>
        <mxCell id="InZTx-NVTbnGkAL5Rg_h-215" value="Delete message" style="rounded=0;whiteSpace=wrap;html=1;fillColor=#dae8fc;strokeColor=#6c8ebf;" parent="1" vertex="1">
          <mxGeometry x="2100" y="390" width="120" height="60" as="geometry" />
        </mxCell>
        <mxCell id="InZTx-NVTbnGkAL5Rg_h-224" style="edgeStyle=orthogonalEdgeStyle;rounded=0;orthogonalLoop=1;jettySize=auto;html=1;entryX=0;entryY=0.5;entryDx=0;entryDy=0;" parent="1" source="InZTx-NVTbnGkAL5Rg_h-220" target="InZTx-NVTbnGkAL5Rg_h-222" edge="1">
          <mxGeometry relative="1" as="geometry" />
        </mxCell>
        <mxCell id="InZTx-NVTbnGkAL5Rg_h-220" value="Fills in new fields" style="rounded=0;whiteSpace=wrap;html=1;fillColor=#dae8fc;strokeColor=#6c8ebf;" parent="1" vertex="1">
          <mxGeometry x="2270" y="293.84000000000003" width="120" height="60" as="geometry" />
        </mxCell>
        <mxCell id="InZTx-NVTbnGkAL5Rg_h-225" style="edgeStyle=orthogonalEdgeStyle;rounded=0;orthogonalLoop=1;jettySize=auto;html=1;exitX=1;exitY=0.5;exitDx=0;exitDy=0;entryX=0;entryY=0.5;entryDx=0;entryDy=0;" parent="1" source="InZTx-NVTbnGkAL5Rg_h-222" target="InZTx-NVTbnGkAL5Rg_h-223" edge="1">
          <mxGeometry relative="1" as="geometry" />
        </mxCell>
        <mxCell id="InZTx-NVTbnGkAL5Rg_h-222" value="Clicks save" style="rounded=0;whiteSpace=wrap;html=1;fillColor=#dae8fc;strokeColor=#6c8ebf;" parent="1" vertex="1">
          <mxGeometry x="2440" y="293.84000000000003" width="120" height="60" as="geometry" />
        </mxCell>
        <mxCell id="InZTx-NVTbnGkAL5Rg_h-226" style="edgeStyle=orthogonalEdgeStyle;rounded=0;orthogonalLoop=1;jettySize=auto;html=1;entryX=0.31;entryY=0.018;entryDx=0;entryDy=0;entryPerimeter=0;" parent="1" source="InZTx-NVTbnGkAL5Rg_h-223" target="InZTx-NVTbnGkAL5Rg_h-202" edge="1">
          <mxGeometry relative="1" as="geometry">
            <Array as="points">
              <mxPoint x="2660" y="260" />
              <mxPoint x="1737" y="260" />
            </Array>
          </mxGeometry>
        </mxCell>
        <mxCell id="InZTx-NVTbnGkAL5Rg_h-227" value="Navigates" style="edgeLabel;html=1;align=center;verticalAlign=middle;resizable=0;points=[];" parent="InZTx-NVTbnGkAL5Rg_h-226" vertex="1" connectable="0">
          <mxGeometry x="0.0541" y="1" relative="1" as="geometry">
            <mxPoint as="offset" />
          </mxGeometry>
        </mxCell>
        <mxCell id="InZTx-NVTbnGkAL5Rg_h-223" value="Updates the message" style="rounded=0;whiteSpace=wrap;html=1;fillColor=#ffe6cc;strokeColor=#d79b00;" parent="1" vertex="1">
          <mxGeometry x="2600" y="293.84" width="120" height="60" as="geometry" />
        </mxCell>
        <mxCell id="InZTx-NVTbnGkAL5Rg_h-228" value="Logsout" style="rounded=0;whiteSpace=wrap;html=1;fillColor=#ffe6cc;strokeColor=#d79b00;" parent="1" vertex="1">
          <mxGeometry x="384" y="70" width="120" height="60" as="geometry" />
        </mxCell>
        <mxCell id="InZTx-NVTbnGkAL5Rg_h-233" style="edgeStyle=orthogonalEdgeStyle;rounded=0;orthogonalLoop=1;jettySize=auto;html=1;" parent="1" source="InZTx-NVTbnGkAL5Rg_h-230" target="InZTx-NVTbnGkAL5Rg_h-10" edge="1">
          <mxGeometry relative="1" as="geometry" />
        </mxCell>
        <mxCell id="InZTx-NVTbnGkAL5Rg_h-230" value="Authorizes" style="rounded=0;whiteSpace=wrap;html=1;fillColor=#ffe6cc;strokeColor=#d79b00;" parent="1" vertex="1">
          <mxGeometry x="-130" y="247" width="120" height="60" as="geometry" />
        </mxCell>
        <mxCell id="InZTx-NVTbnGkAL5Rg_h-238" style="edgeStyle=orthogonalEdgeStyle;rounded=0;orthogonalLoop=1;jettySize=auto;html=1;exitX=1;exitY=0.5;exitDx=0;exitDy=0;entryX=0;entryY=0.5;entryDx=0;entryDy=0;" parent="1" source="InZTx-NVTbnGkAL5Rg_h-234" target="InZTx-NVTbnGkAL5Rg_h-237" edge="1">
          <mxGeometry relative="1" as="geometry" />
        </mxCell>
        <mxCell id="InZTx-NVTbnGkAL5Rg_h-234" value="Clicks on experiment" style="rounded=0;whiteSpace=wrap;html=1;fillColor=#dae8fc;strokeColor=#6c8ebf;" parent="1" vertex="1">
          <mxGeometry x="1115" y="162" width="120" height="60" as="geometry" />
        </mxCell>
        <mxCell id="InZTx-NVTbnGkAL5Rg_h-253" style="edgeStyle=orthogonalEdgeStyle;rounded=0;orthogonalLoop=1;jettySize=auto;html=1;exitX=1;exitY=0.5;exitDx=0;exitDy=0;entryX=0;entryY=0.5;entryDx=0;entryDy=0;" parent="1" source="InZTx-NVTbnGkAL5Rg_h-237" target="InZTx-NVTbnGkAL5Rg_h-247" edge="1">
          <mxGeometry relative="1" as="geometry" />
        </mxCell>
        <mxCell id="InZTx-NVTbnGkAL5Rg_h-237" value="Shows all included questionnaires of the experiment" style="rounded=0;whiteSpace=wrap;html=1;fillColor=#ffe6cc;strokeColor=#d79b00;" parent="1" vertex="1">
          <mxGeometry x="1265" y="162" width="120" height="60" as="geometry" />
        </mxCell>
        <mxCell id="InZTx-NVTbnGkAL5Rg_h-246" style="edgeStyle=orthogonalEdgeStyle;rounded=0;orthogonalLoop=1;jettySize=auto;html=1;" parent="1" source="InZTx-NVTbnGkAL5Rg_h-247" target="InZTx-NVTbnGkAL5Rg_h-250" edge="1">
          <mxGeometry relative="1" as="geometry" />
        </mxCell>
        <mxCell id="InZTx-NVTbnGkAL5Rg_h-247" value="Clicks download responses" style="rounded=0;whiteSpace=wrap;html=1;fillColor=#dae8fc;strokeColor=#6c8ebf;" parent="1" vertex="1">
          <mxGeometry x="1435" y="162" width="120" height="60" as="geometry" />
        </mxCell>
        <mxCell id="InZTx-NVTbnGkAL5Rg_h-248" value="Downloads responses as CSV" style="rounded=0;whiteSpace=wrap;html=1;fillColor=#ffe6cc;strokeColor=#d79b00;" parent="1" vertex="1">
          <mxGeometry x="1915" y="162" width="120" height="60" as="geometry" />
        </mxCell>
        <mxCell id="InZTx-NVTbnGkAL5Rg_h-249" style="edgeStyle=orthogonalEdgeStyle;rounded=0;orthogonalLoop=1;jettySize=auto;html=1;entryX=0;entryY=0.5;entryDx=0;entryDy=0;" parent="1" source="InZTx-NVTbnGkAL5Rg_h-250" target="InZTx-NVTbnGkAL5Rg_h-252" edge="1">
          <mxGeometry relative="1" as="geometry" />
        </mxCell>
        <mxCell id="InZTx-NVTbnGkAL5Rg_h-250" value="Shows preview of CSV" style="rounded=0;whiteSpace=wrap;html=1;fillColor=#ffe6cc;strokeColor=#d79b00;" parent="1" vertex="1">
          <mxGeometry x="1585" y="162" width="120" height="60" as="geometry" />
        </mxCell>
        <mxCell id="InZTx-NVTbnGkAL5Rg_h-251" style="edgeStyle=orthogonalEdgeStyle;rounded=0;orthogonalLoop=1;jettySize=auto;html=1;entryX=0;entryY=0.5;entryDx=0;entryDy=0;" parent="1" source="InZTx-NVTbnGkAL5Rg_h-252" target="InZTx-NVTbnGkAL5Rg_h-248" edge="1">
          <mxGeometry relative="1" as="geometry" />
        </mxCell>
        <mxCell id="InZTx-NVTbnGkAL5Rg_h-252" value="Clicks download" style="rounded=0;whiteSpace=wrap;html=1;fillColor=#dae8fc;strokeColor=#6c8ebf;" parent="1" vertex="1">
          <mxGeometry x="1755" y="162" width="120" height="60" as="geometry" />
        </mxCell>
        <mxCell id="InZTx-NVTbnGkAL5Rg_h-259" style="edgeStyle=orthogonalEdgeStyle;rounded=0;orthogonalLoop=1;jettySize=auto;html=1;exitX=1;exitY=0.5;exitDx=0;exitDy=0;entryX=0;entryY=0.5;entryDx=0;entryDy=0;" parent="1" source="InZTx-NVTbnGkAL5Rg_h-254" target="InZTx-NVTbnGkAL5Rg_h-255" edge="1">
          <mxGeometry relative="1" as="geometry" />
        </mxCell>
        <mxCell id="InZTx-NVTbnGkAL5Rg_h-254" value="Clicks delete experiment" style="rounded=0;whiteSpace=wrap;html=1;fillColor=#dae8fc;strokeColor=#6c8ebf;" parent="1" vertex="1">
          <mxGeometry x="2270" y="390" width="120" height="60" as="geometry" />
        </mxCell>
        <mxCell id="InZTx-NVTbnGkAL5Rg_h-256" style="edgeStyle=orthogonalEdgeStyle;rounded=0;orthogonalLoop=1;jettySize=auto;html=1;entryX=0.5;entryY=1;entryDx=0;entryDy=0;exitX=0.5;exitY=1;exitDx=0;exitDy=0;" parent="1" source="InZTx-NVTbnGkAL5Rg_h-255" target="InZTx-NVTbnGkAL5Rg_h-202" edge="1">
          <mxGeometry relative="1" as="geometry">
            <Array as="points">
              <mxPoint x="2500" y="470" />
              <mxPoint x="1760" y="470" />
            </Array>
          </mxGeometry>
        </mxCell>
        <mxCell id="InZTx-NVTbnGkAL5Rg_h-257" value="No" style="edgeLabel;html=1;align=center;verticalAlign=middle;resizable=0;points=[];" parent="InZTx-NVTbnGkAL5Rg_h-256" vertex="1" connectable="0">
          <mxGeometry x="-0.8798" y="-3" relative="1" as="geometry">
            <mxPoint x="-5" y="1" as="offset" />
          </mxGeometry>
        </mxCell>
        <mxCell id="InZTx-NVTbnGkAL5Rg_h-261" style="edgeStyle=orthogonalEdgeStyle;rounded=0;orthogonalLoop=1;jettySize=auto;html=1;exitX=1;exitY=0.5;exitDx=0;exitDy=0;entryX=0;entryY=0.5;entryDx=0;entryDy=0;" parent="1" source="InZTx-NVTbnGkAL5Rg_h-255" target="InZTx-NVTbnGkAL5Rg_h-260" edge="1">
          <mxGeometry relative="1" as="geometry" />
        </mxCell>
        <mxCell id="InZTx-NVTbnGkAL5Rg_h-316" value="Yes" style="edgeLabel;html=1;align=center;verticalAlign=middle;resizable=0;points=[];" parent="InZTx-NVTbnGkAL5Rg_h-261" vertex="1" connectable="0">
          <mxGeometry x="-0.1259" y="1" relative="1" as="geometry">
            <mxPoint as="offset" />
          </mxGeometry>
        </mxCell>
        <mxCell id="InZTx-NVTbnGkAL5Rg_h-255" value="Confirm deletion?" style="rhombus;whiteSpace=wrap;html=1;" parent="1" vertex="1">
          <mxGeometry x="2460" y="380" width="80" height="80" as="geometry" />
        </mxCell>
        <mxCell id="InZTx-NVTbnGkAL5Rg_h-262" style="edgeStyle=orthogonalEdgeStyle;rounded=0;orthogonalLoop=1;jettySize=auto;html=1;entryX=0.75;entryY=0;entryDx=0;entryDy=0;" parent="1" source="InZTx-NVTbnGkAL5Rg_h-260" target="InZTx-NVTbnGkAL5Rg_h-148" edge="1">
          <mxGeometry relative="1" as="geometry">
            <Array as="points">
              <mxPoint x="2660" y="490" />
              <mxPoint x="1570" y="490" />
            </Array>
          </mxGeometry>
        </mxCell>
        <mxCell id="InZTx-NVTbnGkAL5Rg_h-263" value="Navigates" style="edgeLabel;html=1;align=center;verticalAlign=middle;resizable=0;points=[];" parent="InZTx-NVTbnGkAL5Rg_h-262" vertex="1" connectable="0">
          <mxGeometry x="-0.0002" y="-2" relative="1" as="geometry">
            <mxPoint x="534" y="-8" as="offset" />
          </mxGeometry>
        </mxCell>
        <mxCell id="InZTx-NVTbnGkAL5Rg_h-260" value="Deletes message" style="rounded=0;whiteSpace=wrap;html=1;fillColor=#ffe6cc;strokeColor=#d79b00;" parent="1" vertex="1">
          <mxGeometry x="2600" y="390" width="120" height="60" as="geometry" />
        </mxCell>
        <mxCell id="InZTx-NVTbnGkAL5Rg_h-270" style="edgeStyle=orthogonalEdgeStyle;rounded=0;orthogonalLoop=1;jettySize=auto;html=1;" parent="1" source="InZTx-NVTbnGkAL5Rg_h-264" target="InZTx-NVTbnGkAL5Rg_h-269" edge="1">
          <mxGeometry relative="1" as="geometry" />
        </mxCell>
        <mxCell id="InZTx-NVTbnGkAL5Rg_h-271" value="Navigates" style="edgeLabel;html=1;align=center;verticalAlign=middle;resizable=0;points=[];" parent="InZTx-NVTbnGkAL5Rg_h-270" vertex="1" connectable="0">
          <mxGeometry x="0.0431" y="1" relative="1" as="geometry">
            <mxPoint x="-4" y="1" as="offset" />
          </mxGeometry>
        </mxCell>
        <mxCell id="InZTx-NVTbnGkAL5Rg_h-264" value="Clicks existing questionnaire" style="rounded=0;whiteSpace=wrap;html=1;fillColor=#dae8fc;strokeColor=#6c8ebf;" parent="1" vertex="1">
          <mxGeometry x="1495" y="810" width="120" height="60" as="geometry" />
        </mxCell>
        <mxCell id="InZTx-NVTbnGkAL5Rg_h-275" style="edgeStyle=orthogonalEdgeStyle;rounded=0;orthogonalLoop=1;jettySize=auto;html=1;exitX=1;exitY=0.5;exitDx=0;exitDy=0;" parent="1" source="InZTx-NVTbnGkAL5Rg_h-269" target="InZTx-NVTbnGkAL5Rg_h-272" edge="1">
          <mxGeometry relative="1" as="geometry" />
        </mxCell>
        <mxCell id="InZTx-NVTbnGkAL5Rg_h-269" value="Questionnaire view" style="rounded=0;whiteSpace=wrap;html=1;fillColor=#d5e8d4;strokeColor=#82b366;" parent="1" vertex="1">
          <mxGeometry x="1730" y="810" width="120" height="60" as="geometry" />
        </mxCell>
        <mxCell id="InZTx-NVTbnGkAL5Rg_h-273" style="edgeStyle=orthogonalEdgeStyle;rounded=0;orthogonalLoop=1;jettySize=auto;html=1;exitX=0.5;exitY=0;exitDx=0;exitDy=0;entryX=0.5;entryY=0;entryDx=0;entryDy=0;" parent="1" source="InZTx-NVTbnGkAL5Rg_h-272" target="InZTx-NVTbnGkAL5Rg_h-269" edge="1">
          <mxGeometry relative="1" as="geometry" />
        </mxCell>
        <mxCell id="InZTx-NVTbnGkAL5Rg_h-274" value="No" style="edgeLabel;html=1;align=center;verticalAlign=middle;resizable=0;points=[];" parent="InZTx-NVTbnGkAL5Rg_h-273" vertex="1" connectable="0">
          <mxGeometry x="-0.3533" y="2" relative="1" as="geometry">
            <mxPoint y="-2" as="offset" />
          </mxGeometry>
        </mxCell>
        <mxCell id="InZTx-NVTbnGkAL5Rg_h-279" style="edgeStyle=orthogonalEdgeStyle;rounded=0;orthogonalLoop=1;jettySize=auto;html=1;exitX=0.5;exitY=1;exitDx=0;exitDy=0;entryX=0.5;entryY=0;entryDx=0;entryDy=0;" parent="1" source="InZTx-NVTbnGkAL5Rg_h-272" target="InZTx-NVTbnGkAL5Rg_h-277" edge="1">
          <mxGeometry relative="1" as="geometry" />
        </mxCell>
        <mxCell id="InZTx-NVTbnGkAL5Rg_h-282" style="edgeStyle=orthogonalEdgeStyle;rounded=0;orthogonalLoop=1;jettySize=auto;html=1;exitX=0.5;exitY=1;exitDx=0;exitDy=0;" parent="1" source="InZTx-NVTbnGkAL5Rg_h-272" target="InZTx-NVTbnGkAL5Rg_h-280" edge="1">
          <mxGeometry relative="1" as="geometry" />
        </mxCell>
        <mxCell id="InZTx-NVTbnGkAL5Rg_h-286" style="edgeStyle=orthogonalEdgeStyle;rounded=0;orthogonalLoop=1;jettySize=auto;html=1;exitX=0.5;exitY=1;exitDx=0;exitDy=0;" parent="1" source="InZTx-NVTbnGkAL5Rg_h-272" target="InZTx-NVTbnGkAL5Rg_h-285" edge="1">
          <mxGeometry relative="1" as="geometry" />
        </mxCell>
        <mxCell id="InZTx-NVTbnGkAL5Rg_h-287" value="Yes" style="edgeLabel;html=1;align=center;verticalAlign=middle;resizable=0;points=[];" parent="InZTx-NVTbnGkAL5Rg_h-286" vertex="1" connectable="0">
          <mxGeometry x="-0.7748" y="-2" relative="1" as="geometry">
            <mxPoint x="2" as="offset" />
          </mxGeometry>
        </mxCell>
        <mxCell id="InZTx-NVTbnGkAL5Rg_h-272" value="Did experiment not start?" style="rhombus;whiteSpace=wrap;html=1;" parent="1" vertex="1">
          <mxGeometry x="1900" y="800" width="80" height="80" as="geometry" />
        </mxCell>
        <mxCell id="InZTx-NVTbnGkAL5Rg_h-299" style="edgeStyle=orthogonalEdgeStyle;rounded=0;orthogonalLoop=1;jettySize=auto;html=1;" parent="1" source="InZTx-NVTbnGkAL5Rg_h-277" target="InZTx-NVTbnGkAL5Rg_h-296" edge="1">
          <mxGeometry relative="1" as="geometry" />
        </mxCell>
        <mxCell id="InZTx-NVTbnGkAL5Rg_h-277" value="Clicks delete questionnaire" style="rounded=0;whiteSpace=wrap;html=1;fillColor=#dae8fc;strokeColor=#6c8ebf;" parent="1" vertex="1">
          <mxGeometry x="1880" y="990" width="120" height="60" as="geometry" />
        </mxCell>
        <mxCell id="InZTx-NVTbnGkAL5Rg_h-306" style="edgeStyle=orthogonalEdgeStyle;rounded=0;orthogonalLoop=1;jettySize=auto;html=1;exitX=1;exitY=0.5;exitDx=0;exitDy=0;" parent="1" source="InZTx-NVTbnGkAL5Rg_h-280" target="InZTx-NVTbnGkAL5Rg_h-305" edge="1">
          <mxGeometry relative="1" as="geometry" />
        </mxCell>
        <mxCell id="InZTx-NVTbnGkAL5Rg_h-310" value="Navigates" style="edgeLabel;html=1;align=center;verticalAlign=middle;resizable=0;points=[];" parent="InZTx-NVTbnGkAL5Rg_h-306" vertex="1" connectable="0">
          <mxGeometry x="-0.2762" y="2" relative="1" as="geometry">
            <mxPoint x="25" y="2" as="offset" />
          </mxGeometry>
        </mxCell>
        <mxCell id="InZTx-NVTbnGkAL5Rg_h-280" value="Clicks add/edit questions button" style="rounded=0;whiteSpace=wrap;html=1;fillColor=#dae8fc;strokeColor=#6c8ebf;" parent="1" vertex="1">
          <mxGeometry x="2090" y="990" width="120" height="60" as="geometry" />
        </mxCell>
        <mxCell id="InZTx-NVTbnGkAL5Rg_h-290" style="edgeStyle=orthogonalEdgeStyle;rounded=0;orthogonalLoop=1;jettySize=auto;html=1;exitX=0;exitY=0.5;exitDx=0;exitDy=0;" parent="1" source="InZTx-NVTbnGkAL5Rg_h-285" target="InZTx-NVTbnGkAL5Rg_h-288" edge="1">
          <mxGeometry relative="1" as="geometry" />
        </mxCell>
        <mxCell id="InZTx-NVTbnGkAL5Rg_h-285" value="Clicks edit questionnaire" style="rounded=0;whiteSpace=wrap;html=1;fillColor=#dae8fc;strokeColor=#6c8ebf;" parent="1" vertex="1">
          <mxGeometry x="1720" y="990" width="120" height="60" as="geometry" />
        </mxCell>
        <mxCell id="InZTx-NVTbnGkAL5Rg_h-291" style="edgeStyle=orthogonalEdgeStyle;rounded=0;orthogonalLoop=1;jettySize=auto;html=1;" parent="1" source="InZTx-NVTbnGkAL5Rg_h-288" target="InZTx-NVTbnGkAL5Rg_h-289" edge="1">
          <mxGeometry relative="1" as="geometry" />
        </mxCell>
        <mxCell id="InZTx-NVTbnGkAL5Rg_h-288" value="Fills in new fields" style="rounded=0;whiteSpace=wrap;html=1;fillColor=#dae8fc;strokeColor=#6c8ebf;" parent="1" vertex="1">
          <mxGeometry x="1570" y="990" width="120" height="60" as="geometry" />
        </mxCell>
        <mxCell id="InZTx-NVTbnGkAL5Rg_h-293" style="edgeStyle=orthogonalEdgeStyle;rounded=0;orthogonalLoop=1;jettySize=auto;html=1;" parent="1" source="InZTx-NVTbnGkAL5Rg_h-289" target="InZTx-NVTbnGkAL5Rg_h-292" edge="1">
          <mxGeometry relative="1" as="geometry" />
        </mxCell>
        <mxCell id="InZTx-NVTbnGkAL5Rg_h-289" value="Clicks save" style="rounded=0;whiteSpace=wrap;html=1;fillColor=#dae8fc;strokeColor=#6c8ebf;" parent="1" vertex="1">
          <mxGeometry x="1410" y="990" width="120" height="60" as="geometry" />
        </mxCell>
        <mxCell id="InZTx-NVTbnGkAL5Rg_h-294" style="edgeStyle=orthogonalEdgeStyle;rounded=0;orthogonalLoop=1;jettySize=auto;html=1;entryX=0.25;entryY=1;entryDx=0;entryDy=0;" parent="1" source="InZTx-NVTbnGkAL5Rg_h-292" target="InZTx-NVTbnGkAL5Rg_h-269" edge="1">
          <mxGeometry relative="1" as="geometry" />
        </mxCell>
        <mxCell id="InZTx-NVTbnGkAL5Rg_h-295" value="Navigates" style="edgeLabel;html=1;align=center;verticalAlign=middle;resizable=0;points=[];" parent="InZTx-NVTbnGkAL5Rg_h-294" vertex="1" connectable="0">
          <mxGeometry x="-0.4" y="4" relative="1" as="geometry">
            <mxPoint x="13" y="4" as="offset" />
          </mxGeometry>
        </mxCell>
        <mxCell id="InZTx-NVTbnGkAL5Rg_h-292" value="Updates the questionnaire" style="rounded=0;whiteSpace=wrap;html=1;fillColor=#ffe6cc;strokeColor=#d79b00;" parent="1" vertex="1">
          <mxGeometry x="1410" y="900" width="120" height="60" as="geometry" />
        </mxCell>
        <mxCell id="InZTx-NVTbnGkAL5Rg_h-297" style="edgeStyle=orthogonalEdgeStyle;rounded=0;orthogonalLoop=1;jettySize=auto;html=1;entryX=0;entryY=0;entryDx=0;entryDy=0;exitX=1;exitY=0.5;exitDx=0;exitDy=0;" parent="1" source="InZTx-NVTbnGkAL5Rg_h-296" target="InZTx-NVTbnGkAL5Rg_h-269" edge="1">
          <mxGeometry relative="1" as="geometry">
            <Array as="points">
              <mxPoint x="2880" y="1120" />
              <mxPoint x="2880" y="750" />
              <mxPoint x="1730" y="750" />
            </Array>
          </mxGeometry>
        </mxCell>
        <mxCell id="InZTx-NVTbnGkAL5Rg_h-298" value="No" style="edgeLabel;html=1;align=center;verticalAlign=middle;resizable=0;points=[];" parent="InZTx-NVTbnGkAL5Rg_h-297" vertex="1" connectable="0">
          <mxGeometry x="-0.9846" y="2" relative="1" as="geometry">
            <mxPoint x="1" y="2" as="offset" />
          </mxGeometry>
        </mxCell>
        <mxCell id="InZTx-NVTbnGkAL5Rg_h-301" style="edgeStyle=orthogonalEdgeStyle;rounded=0;orthogonalLoop=1;jettySize=auto;html=1;exitX=0;exitY=0.5;exitDx=0;exitDy=0;" parent="1" source="InZTx-NVTbnGkAL5Rg_h-296" target="InZTx-NVTbnGkAL5Rg_h-300" edge="1">
          <mxGeometry relative="1" as="geometry" />
        </mxCell>
        <mxCell id="InZTx-NVTbnGkAL5Rg_h-317" value="Yes" style="edgeLabel;html=1;align=center;verticalAlign=middle;resizable=0;points=[];" parent="InZTx-NVTbnGkAL5Rg_h-301" vertex="1" connectable="0">
          <mxGeometry x="-0.3941" y="-2" relative="1" as="geometry">
            <mxPoint as="offset" />
          </mxGeometry>
        </mxCell>
        <mxCell id="InZTx-NVTbnGkAL5Rg_h-296" value="Confirm deletion?" style="rhombus;whiteSpace=wrap;html=1;" parent="1" vertex="1">
          <mxGeometry x="1900" y="1080" width="80" height="80" as="geometry" />
        </mxCell>
        <mxCell id="InZTx-NVTbnGkAL5Rg_h-302" style="edgeStyle=orthogonalEdgeStyle;rounded=0;orthogonalLoop=1;jettySize=auto;html=1;exitX=0;exitY=0.5;exitDx=0;exitDy=0;entryX=0;entryY=1;entryDx=0;entryDy=0;" parent="1" source="InZTx-NVTbnGkAL5Rg_h-300" target="InZTx-NVTbnGkAL5Rg_h-149" edge="1">
          <mxGeometry relative="1" as="geometry">
            <Array as="points">
              <mxPoint x="1370" y="1120" />
              <mxPoint x="1370" y="780" />
              <mxPoint x="1480" y="780" />
            </Array>
          </mxGeometry>
        </mxCell>
        <mxCell id="InZTx-NVTbnGkAL5Rg_h-303" value="Navigates" style="edgeLabel;html=1;align=center;verticalAlign=middle;resizable=0;points=[];" parent="InZTx-NVTbnGkAL5Rg_h-302" vertex="1" connectable="0">
          <mxGeometry x="-0.6478" relative="1" as="geometry">
            <mxPoint as="offset" />
          </mxGeometry>
        </mxCell>
        <mxCell id="InZTx-NVTbnGkAL5Rg_h-300" value="Deletes questionnaire" style="rounded=0;whiteSpace=wrap;html=1;fillColor=#ffe6cc;strokeColor=#d79b00;" parent="1" vertex="1">
          <mxGeometry x="1630" y="1090" width="120" height="60" as="geometry" />
        </mxCell>
        <mxCell id="InZTx-NVTbnGkAL5Rg_h-309" style="edgeStyle=orthogonalEdgeStyle;rounded=0;orthogonalLoop=1;jettySize=auto;html=1;exitX=1;exitY=0.5;exitDx=0;exitDy=0;entryX=0;entryY=0.5;entryDx=0;entryDy=0;" parent="1" source="InZTx-NVTbnGkAL5Rg_h-305" target="InZTx-NVTbnGkAL5Rg_h-308" edge="1">
          <mxGeometry relative="1" as="geometry" />
        </mxCell>
        <mxCell id="InZTx-NVTbnGkAL5Rg_h-305" value="Question creation / Question edit" style="rounded=0;whiteSpace=wrap;html=1;fillColor=#d5e8d4;strokeColor=#82b366;" parent="1" vertex="1">
          <mxGeometry x="2335" y="990" width="120" height="60" as="geometry" />
        </mxCell>
        <mxCell id="InZTx-NVTbnGkAL5Rg_h-313" style="edgeStyle=orthogonalEdgeStyle;rounded=0;orthogonalLoop=1;jettySize=auto;html=1;exitX=1;exitY=0.5;exitDx=0;exitDy=0;entryX=0;entryY=0.5;entryDx=0;entryDy=0;" parent="1" source="InZTx-NVTbnGkAL5Rg_h-308" target="InZTx-NVTbnGkAL5Rg_h-318" edge="1">
          <mxGeometry relative="1" as="geometry">
            <mxPoint x="2685" y="1020" as="targetPoint" />
          </mxGeometry>
        </mxCell>
        <mxCell id="InZTx-NVTbnGkAL5Rg_h-308" value="Clicks the Add question button" style="rounded=0;whiteSpace=wrap;html=1;fillColor=#dae8fc;strokeColor=#6c8ebf;" parent="1" vertex="1">
          <mxGeometry x="2515" y="990" width="120" height="60" as="geometry" />
        </mxCell>
        <mxCell id="InZTx-NVTbnGkAL5Rg_h-320" style="edgeStyle=orthogonalEdgeStyle;rounded=0;orthogonalLoop=1;jettySize=auto;html=1;" parent="1" source="InZTx-NVTbnGkAL5Rg_h-318" target="InZTx-NVTbnGkAL5Rg_h-319" edge="1">
          <mxGeometry relative="1" as="geometry" />
        </mxCell>
        <mxCell id="InZTx-NVTbnGkAL5Rg_h-318" value="Shows popup with the option of single answer question and multiple choice" style="rounded=0;whiteSpace=wrap;html=1;fillColor=#ffe6cc;strokeColor=#d79b00;" parent="1" vertex="1">
          <mxGeometry x="2705" y="990" width="120" height="60" as="geometry" />
        </mxCell>
        <mxCell id="InZTx-NVTbnGkAL5Rg_h-322" style="edgeStyle=orthogonalEdgeStyle;rounded=0;orthogonalLoop=1;jettySize=auto;html=1;" parent="1" source="InZTx-NVTbnGkAL5Rg_h-319" target="InZTx-NVTbnGkAL5Rg_h-321" edge="1">
          <mxGeometry relative="1" as="geometry" />
        </mxCell>
        <mxCell id="InZTx-NVTbnGkAL5Rg_h-319" value="Selects desired option" style="rounded=0;whiteSpace=wrap;html=1;fillColor=#dae8fc;strokeColor=#6c8ebf;" parent="1" vertex="1">
          <mxGeometry x="2705" y="825.5" width="120" height="60" as="geometry" />
        </mxCell>
        <mxCell id="InZTx-NVTbnGkAL5Rg_h-324" style="edgeStyle=orthogonalEdgeStyle;rounded=0;orthogonalLoop=1;jettySize=auto;html=1;exitX=0;exitY=0.5;exitDx=0;exitDy=0;entryX=1;entryY=0.5;entryDx=0;entryDy=0;" parent="1" source="InZTx-NVTbnGkAL5Rg_h-321" target="InZTx-NVTbnGkAL5Rg_h-323" edge="1">
          <mxGeometry relative="1" as="geometry" />
        </mxCell>
        <mxCell id="InZTx-NVTbnGkAL5Rg_h-321" value="Fills in all required fields" style="rounded=0;whiteSpace=wrap;html=1;fillColor=#dae8fc;strokeColor=#6c8ebf;" parent="1" vertex="1">
          <mxGeometry x="2515" y="825.5" width="120" height="60" as="geometry" />
        </mxCell>
        <mxCell id="InZTx-NVTbnGkAL5Rg_h-325" style="edgeStyle=orthogonalEdgeStyle;rounded=0;orthogonalLoop=1;jettySize=auto;html=1;entryX=0.5;entryY=0;entryDx=0;entryDy=0;" parent="1" source="InZTx-NVTbnGkAL5Rg_h-323" target="InZTx-NVTbnGkAL5Rg_h-308" edge="1">
          <mxGeometry relative="1" as="geometry">
            <Array as="points">
              <mxPoint x="2405" y="950" />
              <mxPoint x="2575" y="950" />
            </Array>
          </mxGeometry>
        </mxCell>
        <mxCell id="InZTx-NVTbnGkAL5Rg_h-326" value="No" style="edgeLabel;html=1;align=center;verticalAlign=middle;resizable=0;points=[];" parent="InZTx-NVTbnGkAL5Rg_h-325" vertex="1" connectable="0">
          <mxGeometry x="-0.2768" y="1" relative="1" as="geometry">
            <mxPoint as="offset" />
          </mxGeometry>
        </mxCell>
        <mxCell id="InZTx-NVTbnGkAL5Rg_h-329" style="edgeStyle=orthogonalEdgeStyle;rounded=0;orthogonalLoop=1;jettySize=auto;html=1;exitX=0;exitY=0.5;exitDx=0;exitDy=0;entryX=1;entryY=0.5;entryDx=0;entryDy=0;" parent="1" source="InZTx-NVTbnGkAL5Rg_h-323" target="InZTx-NVTbnGkAL5Rg_h-328" edge="1">
          <mxGeometry relative="1" as="geometry" />
        </mxCell>
        <mxCell id="InZTx-NVTbnGkAL5Rg_h-353" value="Yes" style="edgeLabel;html=1;align=center;verticalAlign=middle;resizable=0;points=[];" parent="InZTx-NVTbnGkAL5Rg_h-329" vertex="1" connectable="0">
          <mxGeometry x="-0.2562" y="3" relative="1" as="geometry">
            <mxPoint as="offset" />
          </mxGeometry>
        </mxCell>
        <mxCell id="InZTx-NVTbnGkAL5Rg_h-323" value="Question creation / edit session is finished" style="rhombus;whiteSpace=wrap;html=1;" parent="1" vertex="1">
          <mxGeometry x="2345" y="805.5" width="120" height="100" as="geometry" />
        </mxCell>
        <mxCell id="InZTx-NVTbnGkAL5Rg_h-331" style="edgeStyle=orthogonalEdgeStyle;rounded=0;orthogonalLoop=1;jettySize=auto;html=1;" parent="1" source="InZTx-NVTbnGkAL5Rg_h-328" target="InZTx-NVTbnGkAL5Rg_h-330" edge="1">
          <mxGeometry relative="1" as="geometry" />
        </mxCell>
        <mxCell id="InZTx-NVTbnGkAL5Rg_h-328" value="Clicks save questions" style="rounded=0;whiteSpace=wrap;html=1;fillColor=#dae8fc;strokeColor=#6c8ebf;" parent="1" vertex="1">
          <mxGeometry x="2190" y="825.5" width="120" height="60" as="geometry" />
        </mxCell>
        <mxCell id="InZTx-NVTbnGkAL5Rg_h-333" style="edgeStyle=orthogonalEdgeStyle;rounded=0;orthogonalLoop=1;jettySize=auto;html=1;entryX=0.205;entryY=-0.034;entryDx=0;entryDy=0;entryPerimeter=0;" parent="1" source="InZTx-NVTbnGkAL5Rg_h-330" target="InZTx-NVTbnGkAL5Rg_h-269" edge="1">
          <mxGeometry relative="1" as="geometry">
            <Array as="points">
              <mxPoint x="2090" y="770" />
              <mxPoint x="1760" y="770" />
              <mxPoint x="1760" y="808" />
            </Array>
          </mxGeometry>
        </mxCell>
        <mxCell id="InZTx-NVTbnGkAL5Rg_h-334" value="Navigates" style="edgeLabel;html=1;align=center;verticalAlign=middle;resizable=0;points=[];" parent="InZTx-NVTbnGkAL5Rg_h-333" vertex="1" connectable="0">
          <mxGeometry x="-0.84" y="2" relative="1" as="geometry">
            <mxPoint as="offset" />
          </mxGeometry>
        </mxCell>
        <mxCell id="InZTx-NVTbnGkAL5Rg_h-330" value="Saves questions" style="rounded=0;whiteSpace=wrap;html=1;fillColor=#ffe6cc;strokeColor=#d79b00;" parent="1" vertex="1">
          <mxGeometry x="2030" y="826" width="120" height="60" as="geometry" />
        </mxCell>
        <mxCell id="InZTx-NVTbnGkAL5Rg_h-336" value="Text" style="text;html=1;strokeColor=none;fillColor=none;align=center;verticalAlign=middle;whiteSpace=wrap;rounded=0;" parent="1" vertex="1">
          <mxGeometry x="1190" y="100" width="60" height="30" as="geometry" />
        </mxCell>
        <mxCell id="InZTx-NVTbnGkAL5Rg_h-337" value="&lt;font style=&quot;font-size: 100px;&quot;&gt;&lt;b&gt;Workflow ResearchConnect&lt;/b&gt;&lt;/font&gt;" style="text;html=1;strokeColor=none;fillColor=none;align=center;verticalAlign=middle;whiteSpace=wrap;rounded=0;" parent="1" vertex="1">
          <mxGeometry x="-760" y="-370" width="1440" height="410" as="geometry" />
        </mxCell>
        <mxCell id="InZTx-NVTbnGkAL5Rg_h-339" value="Legend" style="shape=table;startSize=30;container=1;collapsible=0;childLayout=tableLayout;fontSize=17;align=left;verticalAlign=top;fillColor=none;strokeColor=none;fontColor=#4D4D4D;fontStyle=1;spacingLeft=6;spacing=0;resizable=0;" parent="1" vertex="1">
          <mxGeometry x="-663" y="885.5" width="283" height="150" as="geometry" />
        </mxCell>
        <mxCell id="InZTx-NVTbnGkAL5Rg_h-340" value="" style="shape=tableRow;horizontal=0;startSize=0;swimlaneHead=0;swimlaneBody=0;strokeColor=inherit;top=0;left=0;bottom=0;right=0;collapsible=0;dropTarget=0;fillColor=none;points=[[0,0.5],[1,0.5]];portConstraint=eastwest;fontSize=12;" parent="InZTx-NVTbnGkAL5Rg_h-339" vertex="1">
          <mxGeometry y="30" width="283" height="30" as="geometry" />
        </mxCell>
        <mxCell id="InZTx-NVTbnGkAL5Rg_h-341" value="Person" style="shape=partialRectangle;html=1;whiteSpace=wrap;connectable=0;strokeColor=inherit;overflow=hidden;fillColor=#000000;top=0;left=0;bottom=0;right=0;pointerEvents=1;fontSize=12;align=left;fontColor=#FFFFFF;gradientColor=none;spacingLeft=10;spacingRight=4;" parent="InZTx-NVTbnGkAL5Rg_h-340" vertex="1">
          <mxGeometry width="283" height="30" as="geometry">
            <mxRectangle width="283" height="30" as="alternateBounds" />
          </mxGeometry>
        </mxCell>
        <mxCell id="InZTx-NVTbnGkAL5Rg_h-342" value="" style="shape=tableRow;horizontal=0;startSize=0;swimlaneHead=0;swimlaneBody=0;strokeColor=inherit;top=0;left=0;bottom=0;right=0;collapsible=0;dropTarget=0;fillColor=none;points=[[0,0.5],[1,0.5]];portConstraint=eastwest;fontSize=12;" parent="InZTx-NVTbnGkAL5Rg_h-339" vertex="1">
          <mxGeometry y="60" width="283" height="30" as="geometry" />
        </mxCell>
        <mxCell id="InZTx-NVTbnGkAL5Rg_h-343" value="&lt;font color=&quot;#000000&quot;&gt;Pages (UI)&lt;/font&gt;" style="shape=partialRectangle;html=1;whiteSpace=wrap;connectable=0;strokeColor=inherit;overflow=hidden;fillColor=#82B366;top=0;left=0;bottom=0;right=0;pointerEvents=1;fontSize=12;align=left;fontColor=#FFFFFF;gradientColor=none;spacingLeft=10;spacingRight=4;" parent="InZTx-NVTbnGkAL5Rg_h-342" vertex="1">
          <mxGeometry width="283" height="30" as="geometry">
            <mxRectangle width="283" height="30" as="alternateBounds" />
          </mxGeometry>
        </mxCell>
        <mxCell id="InZTx-NVTbnGkAL5Rg_h-346" value="" style="shape=tableRow;horizontal=0;startSize=0;swimlaneHead=0;swimlaneBody=0;strokeColor=inherit;top=0;left=0;bottom=0;right=0;collapsible=0;dropTarget=0;fillColor=none;points=[[0,0.5],[1,0.5]];portConstraint=eastwest;fontSize=12;" parent="InZTx-NVTbnGkAL5Rg_h-339" vertex="1">
          <mxGeometry y="90" width="283" height="30" as="geometry" />
        </mxCell>
        <mxCell id="InZTx-NVTbnGkAL5Rg_h-347" value="&lt;font color=&quot;#000000&quot;&gt;User Actions&lt;/font&gt;" style="shape=partialRectangle;html=1;whiteSpace=wrap;connectable=0;strokeColor=inherit;overflow=hidden;fillColor=#DAE8FC;top=0;left=0;bottom=0;right=0;pointerEvents=1;fontSize=12;align=left;fontColor=#FFFFFF;gradientColor=none;spacingLeft=10;spacingRight=4;" parent="InZTx-NVTbnGkAL5Rg_h-346" vertex="1">
          <mxGeometry width="283" height="30" as="geometry">
            <mxRectangle width="283" height="30" as="alternateBounds" />
          </mxGeometry>
        </mxCell>
        <mxCell id="InZTx-NVTbnGkAL5Rg_h-344" value="" style="shape=tableRow;horizontal=0;startSize=0;swimlaneHead=0;swimlaneBody=0;strokeColor=#d79b00;top=0;left=0;bottom=0;right=0;collapsible=0;dropTarget=0;fillColor=#FFE6CC;points=[[0,0.5],[1,0.5]];portConstraint=eastwest;fontSize=12;" parent="InZTx-NVTbnGkAL5Rg_h-339" vertex="1">
          <mxGeometry y="120" width="283" height="30" as="geometry" />
        </mxCell>
        <mxCell id="InZTx-NVTbnGkAL5Rg_h-345" value="&lt;font color=&quot;#000000&quot;&gt;Container&lt;/font&gt;" style="shape=partialRectangle;html=1;whiteSpace=wrap;connectable=0;strokeColor=inherit;overflow=hidden;fillColor=#FFE6CC;top=0;left=0;bottom=0;right=0;pointerEvents=1;fontSize=12;align=left;fontColor=#FFFFFF;gradientColor=none;spacingLeft=10;spacingRight=4;" parent="InZTx-NVTbnGkAL5Rg_h-344" vertex="1">
          <mxGeometry width="283" height="30" as="geometry">
            <mxRectangle width="283" height="30" as="alternateBounds" />
          </mxGeometry>
        </mxCell>
      </root>
    </mxGraphModel>
  </diagram>
</mxfile>
